<mxfile host="app.diagrams.net" modified="2022-01-06T04:16:10.681Z" agent="5.0 (Windows NT 10.0; Win64; x64) AppleWebKit/537.36 (KHTML, like Gecko) Chrome/96.0.4664.110 Safari/537.36 Edg/96.0.1054.62" etag="CXsw-9seOp8NPxjxSF_S" version="16.2.2" type="github">
  <diagram id="EBI2LygRZCxqeJW2eF5e" name="Page-1">
    <mxGraphModel dx="1865" dy="579" grid="1" gridSize="10" guides="1" tooltips="1" connect="1" arrows="1" fold="1" page="1" pageScale="1" pageWidth="827" pageHeight="1169" math="0" shadow="0">
      <root>
        <mxCell id="0" />
        <mxCell id="1" parent="0" />
        <mxCell id="jiECZz7fGckPXylajzZf-1" value="" style="ellipse;whiteSpace=wrap;html=1;" parent="1" vertex="1">
          <mxGeometry x="30" y="87.5" width="440" height="115" as="geometry" />
        </mxCell>
        <mxCell id="jZ0jSoJBSHUuLXD9sUMY-5" value="Reseller" style="text;html=1;resizable=0;autosize=1;align=center;verticalAlign=middle;points=[];fillColor=none;strokeColor=none;rounded=0;" parent="1" vertex="1">
          <mxGeometry x="40" y="20" width="60" height="20" as="geometry" />
        </mxCell>
        <mxCell id="jZ0jSoJBSHUuLXD9sUMY-8" value="6) 주문" style="text;html=1;resizable=0;autosize=1;align=center;verticalAlign=middle;points=[];fillColor=none;strokeColor=none;rounded=0;" parent="1" vertex="1">
          <mxGeometry x="35" y="1130" width="50" height="20" as="geometry" />
        </mxCell>
        <mxCell id="jZ0jSoJBSHUuLXD9sUMY-17" value="1) 가입 전 온보딩" style="text;html=1;resizable=0;autosize=1;align=center;verticalAlign=middle;points=[];fillColor=none;strokeColor=none;rounded=0;" parent="1" vertex="1">
          <mxGeometry x="30" y="55" width="110" height="20" as="geometry" />
        </mxCell>
        <mxCell id="jZ0jSoJBSHUuLXD9sUMY-18" value="7) 빌링" style="text;html=1;resizable=0;autosize=1;align=center;verticalAlign=middle;points=[];fillColor=none;strokeColor=none;rounded=0;" parent="1" vertex="1">
          <mxGeometry x="35.75" y="2300" width="50" height="20" as="geometry" />
        </mxCell>
        <mxCell id="yiiqBciscbfqafJrFP4t-1" style="edgeStyle=orthogonalEdgeStyle;rounded=0;orthogonalLoop=1;jettySize=auto;html=1;entryX=0;entryY=0.5;entryDx=0;entryDy=0;" parent="1" source="jZ0jSoJBSHUuLXD9sUMY-20" target="jZ0jSoJBSHUuLXD9sUMY-27" edge="1">
          <mxGeometry relative="1" as="geometry" />
        </mxCell>
        <mxCell id="jZ0jSoJBSHUuLXD9sUMY-20" value="MPN 가입" style="strokeWidth=2;html=1;shape=mxgraph.flowchart.terminator;whiteSpace=wrap;" parent="1" vertex="1">
          <mxGeometry x="45" y="125" width="75" height="40" as="geometry" />
        </mxCell>
        <mxCell id="jZ0jSoJBSHUuLXD9sUMY-31" style="edgeStyle=orthogonalEdgeStyle;rounded=0;orthogonalLoop=1;jettySize=auto;html=1;entryX=0;entryY=0.5;entryDx=0;entryDy=0;" parent="1" edge="1">
          <mxGeometry relative="1" as="geometry">
            <mxPoint x="222" y="321" as="targetPoint" />
            <mxPoint x="158.5" y="321" as="sourcePoint" />
          </mxGeometry>
        </mxCell>
        <mxCell id="jZ0jSoJBSHUuLXD9sUMY-22" value="*첫 계정은 관리자 권한" style="text;html=1;resizable=0;autosize=1;align=center;verticalAlign=middle;points=[];fillColor=none;strokeColor=none;rounded=0;" parent="1" vertex="1">
          <mxGeometry x="35" y="280" width="140" height="20" as="geometry" />
        </mxCell>
        <mxCell id="jZ0jSoJBSHUuLXD9sUMY-25" value="파트너관계요청 수락" style="whiteSpace=wrap;html=1;strokeWidth=2;" parent="1" vertex="1">
          <mxGeometry x="506.25" y="130" width="120" height="30" as="geometry" />
        </mxCell>
        <mxCell id="w1osnGguPHcnNslTpG4n-14" value="" style="edgeStyle=orthogonalEdgeStyle;rounded=0;orthogonalLoop=1;jettySize=auto;html=1;" parent="1" source="jZ0jSoJBSHUuLXD9sUMY-27" target="w1osnGguPHcnNslTpG4n-13" edge="1">
          <mxGeometry relative="1" as="geometry" />
        </mxCell>
        <mxCell id="jZ0jSoJBSHUuLXD9sUMY-27" value="CSP 간접 리셀러&lt;br&gt;등록" style="whiteSpace=wrap;html=1;strokeWidth=2;" parent="1" vertex="1">
          <mxGeometry x="163.5" y="130" width="120" height="30" as="geometry" />
        </mxCell>
        <mxCell id="yiiqBciscbfqafJrFP4t-42" style="edgeStyle=orthogonalEdgeStyle;rounded=0;orthogonalLoop=1;jettySize=auto;html=1;entryX=0;entryY=0.5;entryDx=0;entryDy=0;" parent="1" source="jZ0jSoJBSHUuLXD9sUMY-36" target="yiiqBciscbfqafJrFP4t-41" edge="1">
          <mxGeometry relative="1" as="geometry" />
        </mxCell>
        <mxCell id="jZ0jSoJBSHUuLXD9sUMY-36" value="고객사 정보입력" style="whiteSpace=wrap;html=1;strokeWidth=2;" parent="1" vertex="1">
          <mxGeometry x="223.5" y="795" width="120" height="30" as="geometry" />
        </mxCell>
        <mxCell id="Zp6rRj_maZluac3LyFAB-7" value="회사정보&lt;br&gt;: 회사명, 대표자명, 사업자번호, &lt;br&gt;&amp;nbsp;회사전화, 회사이메일&lt;br style=&quot;font-size: 10px&quot;&gt;&amp;nbsp;MPN ID, 국가, 도시, 주, Zipcode, &lt;br&gt;도로명(빌링 주소인지 체크)&lt;br style=&quot;font-size: 10px&quot;&gt;&lt;div style=&quot;font-size: 10px&quot;&gt;&lt;span style=&quot;font-size: 10px&quot;&gt;&lt;br&gt;&lt;/span&gt;&lt;/div&gt;&lt;div style=&quot;font-size: 10px&quot;&gt;&lt;span style=&quot;font-size: 10px&quot;&gt;담당자정보&lt;/span&gt;&lt;/div&gt;&lt;div style=&quot;font-size: 10px&quot;&gt;&lt;span style=&quot;font-size: 10px&quot;&gt;: 이름, 이메일, PW, 전화번호, 직책&lt;/span&gt;&lt;/div&gt;" style="text;html=1;resizable=0;autosize=1;align=left;verticalAlign=middle;points=[];fillColor=none;strokeColor=none;rounded=0;fontSize=10;" parent="1" vertex="1">
          <mxGeometry x="42.5" y="377" width="170" height="100" as="geometry" />
        </mxCell>
        <mxCell id="Zp6rRj_maZluac3LyFAB-8" value="" style="shape=datastore;whiteSpace=wrap;html=1;" parent="1" vertex="1">
          <mxGeometry x="42.5" y="346" width="35" height="30" as="geometry" />
        </mxCell>
        <mxCell id="Zp6rRj_maZluac3LyFAB-11" value="" style="shape=datastore;whiteSpace=wrap;html=1;" parent="1" vertex="1">
          <mxGeometry x="223.5" y="830" width="35" height="30" as="geometry" />
        </mxCell>
        <mxCell id="Zp6rRj_maZluac3LyFAB-12" value="&lt;span&gt;고객사정보&lt;/span&gt;&lt;br&gt;&lt;div style=&quot;font-size: 10px&quot;&gt;&lt;span style=&quot;font-size: 10px&quot;&gt;: 회사명, 대표자명, 사업자번호,회사전화, 회사이메일&lt;br&gt;&lt;/span&gt;&lt;/div&gt;&lt;div style=&quot;font-size: 10px&quot;&gt;&lt;span style=&quot;font-size: 10px&quot;&gt;&amp;nbsp; 담당자명, 담당자연락처, 담당자이메일,&amp;nbsp;&lt;/span&gt;&lt;span&gt;담당자직책,&amp;nbsp;&lt;/span&gt;&lt;/div&gt;&lt;div style=&quot;font-size: 10px&quot;&gt;&lt;span&gt;&amp;nbsp; 국가, 도시, 주, Zipcode, 도로명(빌링주소인지 체크)&lt;/span&gt;&lt;/div&gt;&lt;div style=&quot;font-size: 10px&quot;&gt;&lt;span style=&quot;font-size: 10px&quot;&gt;&amp;nbsp; 도메인 설정, &lt;span style=&quot;background-color: rgb(255 , 255 , 255)&quot;&gt;특별자격,&lt;/span&gt; 고객 MCuA계약동의(선택)&lt;/span&gt;&lt;/div&gt;" style="text;html=1;resizable=0;autosize=1;align=left;verticalAlign=middle;points=[];fillColor=none;strokeColor=none;rounded=0;fontSize=10;" parent="1" vertex="1">
          <mxGeometry x="223.5" y="860" width="250" height="70" as="geometry" />
        </mxCell>
        <mxCell id="Zp6rRj_maZluac3LyFAB-15" value="*MS 글로벌 전역관리자 권한" style="text;html=1;resizable=0;autosize=1;align=center;verticalAlign=middle;points=[];fillColor=none;strokeColor=none;rounded=0;" parent="1" vertex="1">
          <mxGeometry x="155" y="90" width="170" height="20" as="geometry" />
        </mxCell>
        <mxCell id="w1osnGguPHcnNslTpG4n-7" style="edgeStyle=orthogonalEdgeStyle;rounded=0;orthogonalLoop=1;jettySize=auto;html=1;entryX=0;entryY=0.5;entryDx=0;entryDy=0;" parent="1" source="MoLYa7cNz7H3YmrfVmoX-1" target="w1osnGguPHcnNslTpG4n-19" edge="1">
          <mxGeometry relative="1" as="geometry">
            <mxPoint x="170" y="1210" as="targetPoint" />
          </mxGeometry>
        </mxCell>
        <mxCell id="MoLYa7cNz7H3YmrfVmoX-1" value="고객조회" style="strokeWidth=2;html=1;shape=mxgraph.flowchart.terminator;whiteSpace=wrap;" parent="1" vertex="1">
          <mxGeometry x="40" y="1190" width="75" height="40" as="geometry" />
        </mxCell>
        <mxCell id="MoLYa7cNz7H3YmrfVmoX-6" value="Lisense 상품선택" style="whiteSpace=wrap;html=1;strokeWidth=2;" parent="1" vertex="1">
          <mxGeometry x="451.5" y="1140" width="120" height="30" as="geometry" />
        </mxCell>
        <mxCell id="MoLYa7cNz7H3YmrfVmoX-7" value="Usage 상품선택" style="whiteSpace=wrap;html=1;strokeWidth=2;" parent="1" vertex="1">
          <mxGeometry x="451.5" y="1405" width="120" height="30" as="geometry" />
        </mxCell>
        <mxCell id="MoLYa7cNz7H3YmrfVmoX-8" value="Azure RI 상품선택" style="whiteSpace=wrap;html=1;strokeWidth=2;" parent="1" vertex="1">
          <mxGeometry x="450.75" y="1736" width="120" height="30" as="geometry" />
        </mxCell>
        <mxCell id="MoLYa7cNz7H3YmrfVmoX-9" value="S/W 상품선택" style="whiteSpace=wrap;html=1;strokeWidth=2;" parent="1" vertex="1">
          <mxGeometry x="450.75" y="1986" width="120" height="30" as="geometry" />
        </mxCell>
        <mxCell id="MoLYa7cNz7H3YmrfVmoX-15" value="&amp;nbsp;수량 / 청구주기 변경" style="whiteSpace=wrap;html=1;strokeWidth=2;" parent="1" vertex="1">
          <mxGeometry x="2240" y="1175" width="120" height="30" as="geometry" />
        </mxCell>
        <mxCell id="MoLYa7cNz7H3YmrfVmoX-19" value="구독중지" style="whiteSpace=wrap;html=1;strokeWidth=2;" parent="1" vertex="1">
          <mxGeometry x="2240" y="1210" width="120" height="30" as="geometry" />
        </mxCell>
        <mxCell id="MoLYa7cNz7H3YmrfVmoX-20" value="사용" style="whiteSpace=wrap;html=1;strokeWidth=2;" parent="1" vertex="1">
          <mxGeometry x="2240" y="1140" width="120" height="30" as="geometry" />
        </mxCell>
        <mxCell id="MoLYa7cNz7H3YmrfVmoX-28" value="구독중지" style="whiteSpace=wrap;html=1;strokeWidth=2;" parent="1" vertex="1">
          <mxGeometry x="2390" y="1440" width="120" height="30" as="geometry" />
        </mxCell>
        <mxCell id="MoLYa7cNz7H3YmrfVmoX-29" value="예산설정" style="whiteSpace=wrap;html=1;strokeWidth=2;" parent="1" vertex="1">
          <mxGeometry x="2330" y="1550" width="120" height="30" as="geometry" />
        </mxCell>
        <mxCell id="MoLYa7cNz7H3YmrfVmoX-37" style="edgeStyle=orthogonalEdgeStyle;rounded=0;orthogonalLoop=1;jettySize=auto;html=1;entryX=0;entryY=0.5;entryDx=0;entryDy=0;" parent="1" source="MoLYa7cNz7H3YmrfVmoX-30" target="MoLYa7cNz7H3YmrfVmoX-36" edge="1">
          <mxGeometry relative="1" as="geometry" />
        </mxCell>
        <mxCell id="MoLYa7cNz7H3YmrfVmoX-30" value="리소스 온&amp;nbsp;" style="whiteSpace=wrap;html=1;strokeWidth=2;" parent="1" vertex="1">
          <mxGeometry x="2220" y="1405" width="120" height="30" as="geometry" />
        </mxCell>
        <mxCell id="MoLYa7cNz7H3YmrfVmoX-35" style="edgeStyle=orthogonalEdgeStyle;rounded=0;orthogonalLoop=1;jettySize=auto;html=1;entryX=0;entryY=0.5;entryDx=0;entryDy=0;" parent="1" source="MoLYa7cNz7H3YmrfVmoX-33" target="MoLYa7cNz7H3YmrfVmoX-30" edge="1">
          <mxGeometry relative="1" as="geometry" />
        </mxCell>
        <mxCell id="jiECZz7fGckPXylajzZf-226" style="edgeStyle=orthogonalEdgeStyle;rounded=0;orthogonalLoop=1;jettySize=auto;html=1;entryX=0;entryY=0.5;entryDx=0;entryDy=0;" parent="1" source="MoLYa7cNz7H3YmrfVmoX-33" target="jiECZz7fGckPXylajzZf-225" edge="1">
          <mxGeometry relative="1" as="geometry">
            <Array as="points">
              <mxPoint x="2123" y="1538" />
            </Array>
          </mxGeometry>
        </mxCell>
        <mxCell id="MoLYa7cNz7H3YmrfVmoX-33" value="Azure Plan?" style="rhombus;whiteSpace=wrap;html=1;" parent="1" vertex="1">
          <mxGeometry x="2082.5" y="1380" width="80" height="80" as="geometry" />
        </mxCell>
        <mxCell id="MoLYa7cNz7H3YmrfVmoX-36" value="사용" style="whiteSpace=wrap;html=1;strokeWidth=2;" parent="1" vertex="1">
          <mxGeometry x="2390" y="1405" width="120" height="30" as="geometry" />
        </mxCell>
        <mxCell id="MoLYa7cNz7H3YmrfVmoX-38" value="YES" style="text;html=1;resizable=0;autosize=1;align=center;verticalAlign=middle;points=[];fillColor=none;strokeColor=none;rounded=0;" parent="1" vertex="1">
          <mxGeometry x="2157.5" y="1395" width="40" height="20" as="geometry" />
        </mxCell>
        <mxCell id="MoLYa7cNz7H3YmrfVmoX-39" value="NO" style="text;html=1;resizable=0;autosize=1;align=center;verticalAlign=middle;points=[];fillColor=none;strokeColor=none;rounded=0;" parent="1" vertex="1">
          <mxGeometry x="2127.5" y="1460" width="30" height="20" as="geometry" />
        </mxCell>
        <mxCell id="MoLYa7cNz7H3YmrfVmoX-40" value="예산설정" style="whiteSpace=wrap;html=1;strokeWidth=2;" parent="1" vertex="1">
          <mxGeometry x="2220" y="1440" width="120" height="30" as="geometry" />
        </mxCell>
        <mxCell id="MoLYa7cNz7H3YmrfVmoX-47" value="" style="edgeStyle=orthogonalEdgeStyle;rounded=0;orthogonalLoop=1;jettySize=auto;html=1;" parent="1" source="MoLYa7cNz7H3YmrfVmoX-41" target="MoLYa7cNz7H3YmrfVmoX-45" edge="1">
          <mxGeometry relative="1" as="geometry" />
        </mxCell>
        <mxCell id="MoLYa7cNz7H3YmrfVmoX-41" value="리소스 온&amp;nbsp;" style="whiteSpace=wrap;html=1;strokeWidth=2;" parent="1" vertex="1">
          <mxGeometry x="2330" y="1515" width="120" height="30" as="geometry" />
        </mxCell>
        <mxCell id="MoLYa7cNz7H3YmrfVmoX-42" value="청구 전환(Plan)" style="whiteSpace=wrap;html=1;strokeWidth=2;" parent="1" vertex="1">
          <mxGeometry x="2330" y="1585" width="120" height="30" as="geometry" />
        </mxCell>
        <mxCell id="MoLYa7cNz7H3YmrfVmoX-44" value="구독중지" style="whiteSpace=wrap;html=1;strokeWidth=2;" parent="1" vertex="1">
          <mxGeometry x="2500" y="1550" width="120" height="30" as="geometry" />
        </mxCell>
        <mxCell id="MoLYa7cNz7H3YmrfVmoX-45" value="사용" style="whiteSpace=wrap;html=1;strokeWidth=2;" parent="1" vertex="1">
          <mxGeometry x="2500" y="1515" width="120" height="30" as="geometry" />
        </mxCell>
        <mxCell id="MoLYa7cNz7H3YmrfVmoX-51" value="" style="edgeStyle=orthogonalEdgeStyle;rounded=0;orthogonalLoop=1;jettySize=auto;html=1;" parent="1" source="MoLYa7cNz7H3YmrfVmoX-48" target="MoLYa7cNz7H3YmrfVmoX-49" edge="1">
          <mxGeometry relative="1" as="geometry" />
        </mxCell>
        <mxCell id="MoLYa7cNz7H3YmrfVmoX-48" value="리소스 온" style="whiteSpace=wrap;html=1;strokeWidth=2;" parent="1" vertex="1">
          <mxGeometry x="2089.25" y="1736" width="120" height="30" as="geometry" />
        </mxCell>
        <mxCell id="MoLYa7cNz7H3YmrfVmoX-49" value="사용" style="whiteSpace=wrap;html=1;strokeWidth=2;" parent="1" vertex="1">
          <mxGeometry x="2259.25" y="1736" width="120" height="30" as="geometry" />
        </mxCell>
        <mxCell id="MoLYa7cNz7H3YmrfVmoX-52" value="구독중지" style="whiteSpace=wrap;html=1;strokeWidth=2;" parent="1" vertex="1">
          <mxGeometry x="2251.75" y="2024" width="120" height="30" as="geometry" />
        </mxCell>
        <mxCell id="MoLYa7cNz7H3YmrfVmoX-53" value="사용" style="whiteSpace=wrap;html=1;strokeWidth=2;" parent="1" vertex="1">
          <mxGeometry x="2251.75" y="1984" width="120" height="30" as="geometry" />
        </mxCell>
        <mxCell id="MoLYa7cNz7H3YmrfVmoX-57" style="edgeStyle=orthogonalEdgeStyle;rounded=0;orthogonalLoop=1;jettySize=auto;html=1;entryX=0;entryY=0.5;entryDx=0;entryDy=0;" parent="1" source="MoLYa7cNz7H3YmrfVmoX-55" target="MoLYa7cNz7H3YmrfVmoX-53" edge="1">
          <mxGeometry relative="1" as="geometry" />
        </mxCell>
        <mxCell id="MoLYa7cNz7H3YmrfVmoX-55" value="완료안내메일 발송" style="whiteSpace=wrap;html=1;strokeWidth=2;" parent="1" vertex="1">
          <mxGeometry x="2081.75" y="1984" width="120" height="30" as="geometry" />
        </mxCell>
        <mxCell id="MoLYa7cNz7H3YmrfVmoX-62" style="edgeStyle=orthogonalEdgeStyle;rounded=0;orthogonalLoop=1;jettySize=auto;html=1;entryX=0;entryY=0.5;entryDx=0;entryDy=0;" parent="1" source="MoLYa7cNz7H3YmrfVmoX-60" target="MoLYa7cNz7H3YmrfVmoX-61" edge="1">
          <mxGeometry relative="1" as="geometry" />
        </mxCell>
        <mxCell id="MoLYa7cNz7H3YmrfVmoX-60" value="사용량 / 비용 확인" style="strokeWidth=2;html=1;shape=mxgraph.flowchart.terminator;whiteSpace=wrap;" parent="1" vertex="1">
          <mxGeometry x="38.25" y="2330" width="125" height="40" as="geometry" />
        </mxCell>
        <mxCell id="MoLYa7cNz7H3YmrfVmoX-64" style="edgeStyle=orthogonalEdgeStyle;rounded=0;orthogonalLoop=1;jettySize=auto;html=1;entryX=0;entryY=0.5;entryDx=0;entryDy=0;" parent="1" source="MoLYa7cNz7H3YmrfVmoX-61" target="MoLYa7cNz7H3YmrfVmoX-63" edge="1">
          <mxGeometry relative="1" as="geometry" />
        </mxCell>
        <mxCell id="MoLYa7cNz7H3YmrfVmoX-61" value="인보이스 발행" style="whiteSpace=wrap;html=1;strokeWidth=2;" parent="1" vertex="1">
          <mxGeometry x="237.25" y="2335" width="120" height="30" as="geometry" />
        </mxCell>
        <mxCell id="MoLYa7cNz7H3YmrfVmoX-66" style="edgeStyle=orthogonalEdgeStyle;rounded=0;orthogonalLoop=1;jettySize=auto;html=1;entryX=0;entryY=0.5;entryDx=0;entryDy=0;" parent="1" source="MoLYa7cNz7H3YmrfVmoX-63" target="MoLYa7cNz7H3YmrfVmoX-65" edge="1">
          <mxGeometry relative="1" as="geometry" />
        </mxCell>
        <mxCell id="MoLYa7cNz7H3YmrfVmoX-63" value="고객사 대금 수취" style="whiteSpace=wrap;html=1;strokeWidth=2;" parent="1" vertex="1">
          <mxGeometry x="433.25" y="2335" width="120" height="30" as="geometry" />
        </mxCell>
        <mxCell id="MoLYa7cNz7H3YmrfVmoX-65" value="공급사 대금 지불" style="whiteSpace=wrap;html=1;strokeWidth=2;" parent="1" vertex="1">
          <mxGeometry x="633.25" y="2335" width="120" height="30" as="geometry" />
        </mxCell>
        <mxCell id="w1osnGguPHcnNslTpG4n-10" value="*기존 등록자 생략가능" style="text;html=1;resizable=0;autosize=1;align=center;verticalAlign=middle;points=[];fillColor=none;strokeColor=none;rounded=0;" parent="1" vertex="1">
          <mxGeometry x="165" y="110" width="130" height="20" as="geometry" />
        </mxCell>
        <mxCell id="yiiqBciscbfqafJrFP4t-36" style="edgeStyle=orthogonalEdgeStyle;rounded=0;orthogonalLoop=1;jettySize=auto;html=1;entryX=0;entryY=0.5;entryDx=0;entryDy=0;" parent="1" source="w1osnGguPHcnNslTpG4n-13" target="jZ0jSoJBSHUuLXD9sUMY-25" edge="1">
          <mxGeometry relative="1" as="geometry" />
        </mxCell>
        <mxCell id="w1osnGguPHcnNslTpG4n-13" value="MPA 계약" style="whiteSpace=wrap;html=1;strokeWidth=2;" parent="1" vertex="1">
          <mxGeometry x="334.5" y="130" width="120" height="30" as="geometry" />
        </mxCell>
        <mxCell id="w1osnGguPHcnNslTpG4n-18" value="*기존 등록자 생략가능" style="text;html=1;resizable=0;autosize=1;align=center;verticalAlign=middle;points=[];fillColor=none;strokeColor=none;rounded=0;" parent="1" vertex="1">
          <mxGeometry x="323.5" y="110" width="130" height="20" as="geometry" />
        </mxCell>
        <mxCell id="w1osnGguPHcnNslTpG4n-19" value="상품검색" style="whiteSpace=wrap;html=1;strokeWidth=2;" parent="1" vertex="1">
          <mxGeometry x="180" y="1195" width="120" height="30" as="geometry" />
        </mxCell>
        <mxCell id="w1osnGguPHcnNslTpG4n-24" value="*신규 추가 시 고객사 정보등록 필요" style="text;html=1;resizable=0;autosize=1;align=center;verticalAlign=middle;points=[];fillColor=none;strokeColor=none;rounded=0;" parent="1" vertex="1">
          <mxGeometry x="-5" y="1169" width="210" height="20" as="geometry" />
        </mxCell>
        <mxCell id="w1osnGguPHcnNslTpG4n-26" value="*테넌트 별 MCuA동의 체크필수" style="text;html=1;resizable=0;autosize=1;align=center;verticalAlign=middle;points=[];fillColor=none;strokeColor=none;rounded=0;" parent="1" vertex="1">
          <mxGeometry x="918.5" y="1115" width="180" height="20" as="geometry" />
        </mxCell>
        <mxCell id="6FOCTZJuEtxlS3nvwUdA-1" value="구독중지" style="whiteSpace=wrap;html=1;strokeWidth=2;" parent="1" vertex="1">
          <mxGeometry x="2259.25" y="1776" width="120" height="30" as="geometry" />
        </mxCell>
        <mxCell id="yiiqBciscbfqafJrFP4t-2" value="2) 포탈 가입" style="text;html=1;resizable=0;autosize=1;align=center;verticalAlign=middle;points=[];fillColor=none;strokeColor=none;rounded=0;" parent="1" vertex="1">
          <mxGeometry x="35" y="250" width="80" height="20" as="geometry" />
        </mxCell>
        <mxCell id="yiiqBciscbfqafJrFP4t-6" style="edgeStyle=orthogonalEdgeStyle;rounded=0;orthogonalLoop=1;jettySize=auto;html=1;entryX=0;entryY=0.5;entryDx=0;entryDy=0;" parent="1" source="yiiqBciscbfqafJrFP4t-3" target="yiiqBciscbfqafJrFP4t-4" edge="1">
          <mxGeometry relative="1" as="geometry" />
        </mxCell>
        <mxCell id="yiiqBciscbfqafJrFP4t-3" value="약관동의" style="whiteSpace=wrap;html=1;strokeWidth=2;" parent="1" vertex="1">
          <mxGeometry x="223.5" y="306" width="120" height="30" as="geometry" />
        </mxCell>
        <mxCell id="yiiqBciscbfqafJrFP4t-8" style="edgeStyle=orthogonalEdgeStyle;rounded=0;orthogonalLoop=1;jettySize=auto;html=1;entryX=0;entryY=0.5;entryDx=0;entryDy=0;" parent="1" source="yiiqBciscbfqafJrFP4t-4" target="yiiqBciscbfqafJrFP4t-7" edge="1">
          <mxGeometry relative="1" as="geometry" />
        </mxCell>
        <mxCell id="yiiqBciscbfqafJrFP4t-4" value="인증메일발송" style="whiteSpace=wrap;html=1;strokeWidth=2;" parent="1" vertex="1">
          <mxGeometry x="405.25" y="306" width="120" height="30" as="geometry" />
        </mxCell>
        <mxCell id="_ZmIt5JVzIrqZUVVzqY8-2" style="edgeStyle=orthogonalEdgeStyle;rounded=0;orthogonalLoop=1;jettySize=auto;html=1;entryX=0;entryY=0.5;entryDx=0;entryDy=0;" parent="1" source="yiiqBciscbfqafJrFP4t-5" target="_ZmIt5JVzIrqZUVVzqY8-1" edge="1">
          <mxGeometry relative="1" as="geometry" />
        </mxCell>
        <mxCell id="yiiqBciscbfqafJrFP4t-5" value="Azure AD 등록" style="whiteSpace=wrap;html=1;strokeWidth=2;" parent="1" vertex="1">
          <mxGeometry x="1128.5" y="305" width="120" height="30" as="geometry" />
        </mxCell>
        <mxCell id="yiiqBciscbfqafJrFP4t-10" style="edgeStyle=orthogonalEdgeStyle;rounded=0;orthogonalLoop=1;jettySize=auto;html=1;entryX=0;entryY=0.5;entryDx=0;entryDy=0;" parent="1" source="yiiqBciscbfqafJrFP4t-7" target="yiiqBciscbfqafJrFP4t-9" edge="1">
          <mxGeometry relative="1" as="geometry" />
        </mxCell>
        <mxCell id="yiiqBciscbfqafJrFP4t-7" value="메일코드입력" style="whiteSpace=wrap;html=1;strokeWidth=2;" parent="1" vertex="1">
          <mxGeometry x="588.5" y="306" width="120" height="30" as="geometry" />
        </mxCell>
        <mxCell id="yiiqBciscbfqafJrFP4t-12" style="edgeStyle=orthogonalEdgeStyle;rounded=0;orthogonalLoop=1;jettySize=auto;html=1;entryX=0;entryY=0.5;entryDx=0;entryDy=0;" parent="1" source="yiiqBciscbfqafJrFP4t-9" target="yiiqBciscbfqafJrFP4t-11" edge="1">
          <mxGeometry relative="1" as="geometry" />
        </mxCell>
        <mxCell id="yiiqBciscbfqafJrFP4t-9" value="메일검증완료" style="whiteSpace=wrap;html=1;strokeWidth=2;" parent="1" vertex="1">
          <mxGeometry x="768.5" y="306" width="120" height="30" as="geometry" />
        </mxCell>
        <mxCell id="yiiqBciscbfqafJrFP4t-14" style="edgeStyle=orthogonalEdgeStyle;rounded=0;orthogonalLoop=1;jettySize=auto;html=1;entryX=0;entryY=0.5;entryDx=0;entryDy=0;" parent="1" source="yiiqBciscbfqafJrFP4t-11" edge="1">
          <mxGeometry relative="1" as="geometry">
            <mxPoint x="1128.5" y="321" as="targetPoint" />
          </mxGeometry>
        </mxCell>
        <mxCell id="yiiqBciscbfqafJrFP4t-11" value="회원가입완료" style="whiteSpace=wrap;html=1;strokeWidth=2;" parent="1" vertex="1">
          <mxGeometry x="948.5" y="306" width="120" height="30" as="geometry" />
        </mxCell>
        <mxCell id="yiiqBciscbfqafJrFP4t-15" value="가입정보 입력" style="strokeWidth=2;html=1;shape=mxgraph.flowchart.terminator;whiteSpace=wrap;" parent="1" vertex="1">
          <mxGeometry x="42.5" y="300" width="115" height="40" as="geometry" />
        </mxCell>
        <mxCell id="yiiqBciscbfqafJrFP4t-16" value="3) 사용자 추가" style="text;html=1;resizable=0;autosize=1;align=center;verticalAlign=middle;points=[];fillColor=none;strokeColor=none;rounded=0;" parent="1" vertex="1">
          <mxGeometry x="35" y="510" width="90" height="20" as="geometry" />
        </mxCell>
        <mxCell id="yiiqBciscbfqafJrFP4t-17" value="4) 고객사 신규추가" style="text;html=1;resizable=0;autosize=1;align=center;verticalAlign=middle;points=[];fillColor=none;strokeColor=none;rounded=0;" parent="1" vertex="1">
          <mxGeometry x="35" y="760" width="120" height="20" as="geometry" />
        </mxCell>
        <mxCell id="yiiqBciscbfqafJrFP4t-21" style="edgeStyle=orthogonalEdgeStyle;rounded=0;orthogonalLoop=1;jettySize=auto;html=1;entryX=0;entryY=0.5;entryDx=0;entryDy=0;" parent="1" source="yiiqBciscbfqafJrFP4t-18" target="yiiqBciscbfqafJrFP4t-20" edge="1">
          <mxGeometry relative="1" as="geometry" />
        </mxCell>
        <mxCell id="yiiqBciscbfqafJrFP4t-18" value="사용자 추가" style="strokeWidth=2;html=1;shape=mxgraph.flowchart.terminator;whiteSpace=wrap;" parent="1" vertex="1">
          <mxGeometry x="42.5" y="565" width="115" height="40" as="geometry" />
        </mxCell>
        <mxCell id="yiiqBciscbfqafJrFP4t-19" value="*관리자 권한" style="text;html=1;resizable=0;autosize=1;align=center;verticalAlign=middle;points=[];fillColor=none;strokeColor=none;rounded=0;" parent="1" vertex="1">
          <mxGeometry x="57.5" y="545" width="80" height="20" as="geometry" />
        </mxCell>
        <mxCell id="yiiqBciscbfqafJrFP4t-25" style="edgeStyle=orthogonalEdgeStyle;rounded=0;orthogonalLoop=1;jettySize=auto;html=1;entryX=0;entryY=0.5;entryDx=0;entryDy=0;" parent="1" source="yiiqBciscbfqafJrFP4t-20" target="yiiqBciscbfqafJrFP4t-24" edge="1">
          <mxGeometry relative="1" as="geometry" />
        </mxCell>
        <mxCell id="yiiqBciscbfqafJrFP4t-20" value="사용자 정보입력" style="whiteSpace=wrap;html=1;strokeWidth=2;" parent="1" vertex="1">
          <mxGeometry x="223.5" y="570" width="120" height="30" as="geometry" />
        </mxCell>
        <mxCell id="yiiqBciscbfqafJrFP4t-22" value="" style="shape=datastore;whiteSpace=wrap;html=1;" parent="1" vertex="1">
          <mxGeometry x="223.5" y="605" width="35" height="30" as="geometry" />
        </mxCell>
        <mxCell id="yiiqBciscbfqafJrFP4t-23" value="&lt;span&gt;사용자정보&lt;/span&gt;&lt;br&gt;&lt;div style=&quot;font-size: 10px&quot;&gt;&lt;span style=&quot;font-size: 10px&quot;&gt;: 이름, ID(이메일), PW, 전화번호, 직책&lt;/span&gt;&lt;/div&gt;&lt;div style=&quot;font-size: 10px&quot;&gt;&lt;span&gt;(관리자뷰)활성화토글, 권한부여&amp;nbsp;&lt;/span&gt;&lt;/div&gt;" style="text;html=1;resizable=0;autosize=1;align=left;verticalAlign=middle;points=[];fillColor=none;strokeColor=none;rounded=0;fontSize=10;" parent="1" vertex="1">
          <mxGeometry x="223.5" y="645" width="190" height="40" as="geometry" />
        </mxCell>
        <mxCell id="yiiqBciscbfqafJrFP4t-28" style="edgeStyle=orthogonalEdgeStyle;rounded=0;orthogonalLoop=1;jettySize=auto;html=1;entryX=0;entryY=0.5;entryDx=0;entryDy=0;" parent="1" source="yiiqBciscbfqafJrFP4t-24" target="yiiqBciscbfqafJrFP4t-27" edge="1">
          <mxGeometry relative="1" as="geometry" />
        </mxCell>
        <mxCell id="yiiqBciscbfqafJrFP4t-24" value="이메일 중복체크" style="whiteSpace=wrap;html=1;strokeWidth=2;" parent="1" vertex="1">
          <mxGeometry x="406.75" y="570" width="120" height="30" as="geometry" />
        </mxCell>
        <mxCell id="yiiqBciscbfqafJrFP4t-26" value="비밀번호 확인" style="whiteSpace=wrap;html=1;strokeWidth=2;" parent="1" vertex="1">
          <mxGeometry x="406.75" y="615" width="120" height="30" as="geometry" />
        </mxCell>
        <mxCell id="yiiqBciscbfqafJrFP4t-32" style="edgeStyle=orthogonalEdgeStyle;rounded=0;orthogonalLoop=1;jettySize=auto;html=1;entryX=0;entryY=0.5;entryDx=0;entryDy=0;" parent="1" source="yiiqBciscbfqafJrFP4t-27" target="yiiqBciscbfqafJrFP4t-31" edge="1">
          <mxGeometry relative="1" as="geometry" />
        </mxCell>
        <mxCell id="yiiqBciscbfqafJrFP4t-27" value="사용자 추가완료" style="whiteSpace=wrap;html=1;strokeWidth=2;" parent="1" vertex="1">
          <mxGeometry x="588.5" y="570" width="120" height="30" as="geometry" />
        </mxCell>
        <mxCell id="yiiqBciscbfqafJrFP4t-29" value="가입완료 메일발송" style="whiteSpace=wrap;html=1;strokeWidth=2;" parent="1" vertex="1">
          <mxGeometry x="588.5" y="615" width="120" height="30" as="geometry" />
        </mxCell>
        <mxCell id="yiiqBciscbfqafJrFP4t-34" style="edgeStyle=orthogonalEdgeStyle;rounded=0;orthogonalLoop=1;jettySize=auto;html=1;entryX=0;entryY=0.5;entryDx=0;entryDy=0;" parent="1" source="yiiqBciscbfqafJrFP4t-31" target="yiiqBciscbfqafJrFP4t-33" edge="1">
          <mxGeometry relative="1" as="geometry" />
        </mxCell>
        <mxCell id="yiiqBciscbfqafJrFP4t-31" value="가입완료 메일확인&lt;br&gt;(초대 URL)" style="whiteSpace=wrap;html=1;strokeWidth=2;" parent="1" vertex="1">
          <mxGeometry x="761.25" y="570" width="120" height="30" as="geometry" />
        </mxCell>
        <mxCell id="yiiqBciscbfqafJrFP4t-33" value="로그인" style="whiteSpace=wrap;html=1;strokeWidth=2;" parent="1" vertex="1">
          <mxGeometry x="930" y="570" width="120" height="30" as="geometry" />
        </mxCell>
        <mxCell id="yiiqBciscbfqafJrFP4t-40" style="edgeStyle=orthogonalEdgeStyle;rounded=0;orthogonalLoop=1;jettySize=auto;html=1;entryX=0;entryY=0.5;entryDx=0;entryDy=0;" parent="1" source="yiiqBciscbfqafJrFP4t-35" target="jZ0jSoJBSHUuLXD9sUMY-36" edge="1">
          <mxGeometry relative="1" as="geometry" />
        </mxCell>
        <mxCell id="yiiqBciscbfqafJrFP4t-35" value="고객사 추가" style="strokeWidth=2;html=1;shape=mxgraph.flowchart.terminator;whiteSpace=wrap;" parent="1" vertex="1">
          <mxGeometry x="40" y="790" width="115" height="40" as="geometry" />
        </mxCell>
        <mxCell id="yiiqBciscbfqafJrFP4t-44" style="edgeStyle=orthogonalEdgeStyle;rounded=0;orthogonalLoop=1;jettySize=auto;html=1;entryX=0;entryY=0.5;entryDx=0;entryDy=0;" parent="1" source="yiiqBciscbfqafJrFP4t-41" target="yiiqBciscbfqafJrFP4t-43" edge="1">
          <mxGeometry relative="1" as="geometry" />
        </mxCell>
        <mxCell id="yiiqBciscbfqafJrFP4t-41" value="도메인 중복체크" style="whiteSpace=wrap;html=1;strokeWidth=2;" parent="1" vertex="1">
          <mxGeometry x="405.25" y="795" width="120" height="30" as="geometry" />
        </mxCell>
        <mxCell id="yiiqBciscbfqafJrFP4t-46" style="edgeStyle=orthogonalEdgeStyle;rounded=0;orthogonalLoop=1;jettySize=auto;html=1;entryX=0;entryY=0.5;entryDx=0;entryDy=0;" parent="1" source="yiiqBciscbfqafJrFP4t-43" target="yiiqBciscbfqafJrFP4t-45" edge="1">
          <mxGeometry relative="1" as="geometry" />
        </mxCell>
        <mxCell id="yiiqBciscbfqafJrFP4t-43" value="MCuA 계약동의" style="whiteSpace=wrap;html=1;strokeWidth=2;" parent="1" vertex="1">
          <mxGeometry x="586.25" y="795" width="120" height="30" as="geometry" />
        </mxCell>
        <mxCell id="yiiqBciscbfqafJrFP4t-45" value="고객사 추가완료" style="whiteSpace=wrap;html=1;strokeWidth=2;" parent="1" vertex="1">
          <mxGeometry x="768.5" y="795" width="120" height="30" as="geometry" />
        </mxCell>
        <mxCell id="x6lxZDlceFVpdXFvNisg-1" value="5) 기존 고객 전환" style="text;html=1;resizable=0;autosize=1;align=center;verticalAlign=middle;points=[];fillColor=none;strokeColor=none;rounded=0;" parent="1" vertex="1">
          <mxGeometry x="35" y="960" width="110" height="20" as="geometry" />
        </mxCell>
        <mxCell id="x6lxZDlceFVpdXFvNisg-4" style="edgeStyle=orthogonalEdgeStyle;rounded=0;orthogonalLoop=1;jettySize=auto;html=1;entryX=0;entryY=0.5;entryDx=0;entryDy=0;" parent="1" source="x6lxZDlceFVpdXFvNisg-2" target="x6lxZDlceFVpdXFvNisg-3" edge="1">
          <mxGeometry relative="1" as="geometry" />
        </mxCell>
        <mxCell id="x6lxZDlceFVpdXFvNisg-2" value="재판매인 관계요청" style="strokeWidth=2;html=1;shape=mxgraph.flowchart.terminator;whiteSpace=wrap;" parent="1" vertex="1">
          <mxGeometry x="42.5" y="990" width="115" height="40" as="geometry" />
        </mxCell>
        <mxCell id="x6lxZDlceFVpdXFvNisg-7" style="edgeStyle=orthogonalEdgeStyle;rounded=0;orthogonalLoop=1;jettySize=auto;html=1;entryX=0;entryY=0.5;entryDx=0;entryDy=0;" parent="1" source="x6lxZDlceFVpdXFvNisg-3" target="x6lxZDlceFVpdXFvNisg-5" edge="1">
          <mxGeometry relative="1" as="geometry" />
        </mxCell>
        <mxCell id="x6lxZDlceFVpdXFvNisg-3" value="초대메일 발송&lt;br&gt;(To 고객테넌트)" style="whiteSpace=wrap;html=1;strokeWidth=2;" parent="1" vertex="1">
          <mxGeometry x="223.5" y="995" width="120" height="30" as="geometry" />
        </mxCell>
        <mxCell id="x6lxZDlceFVpdXFvNisg-9" style="edgeStyle=orthogonalEdgeStyle;rounded=0;orthogonalLoop=1;jettySize=auto;html=1;entryX=0;entryY=0.5;entryDx=0;entryDy=0;" parent="1" source="x6lxZDlceFVpdXFvNisg-5" target="x6lxZDlceFVpdXFvNisg-8" edge="1">
          <mxGeometry relative="1" as="geometry" />
        </mxCell>
        <mxCell id="x6lxZDlceFVpdXFvNisg-5" value="관계 승인" style="whiteSpace=wrap;html=1;strokeWidth=2;" parent="1" vertex="1">
          <mxGeometry x="406.75" y="995" width="120" height="30" as="geometry" />
        </mxCell>
        <mxCell id="x6lxZDlceFVpdXFvNisg-6" value="*고객이 MS 어드민 권한 필요" style="text;html=1;resizable=0;autosize=1;align=center;verticalAlign=middle;points=[];fillColor=none;strokeColor=none;rounded=0;" parent="1" vertex="1">
          <mxGeometry x="386.75" y="950" width="170" height="20" as="geometry" />
        </mxCell>
        <mxCell id="x6lxZDlceFVpdXFvNisg-8" value="End-User와&lt;br&gt;관계설정완료" style="whiteSpace=wrap;html=1;strokeWidth=2;" parent="1" vertex="1">
          <mxGeometry x="588.5" y="995" width="120" height="30" as="geometry" />
        </mxCell>
        <mxCell id="x6lxZDlceFVpdXFvNisg-10" value="*고객과 파트너 테넌트 동일한 지역이어야함" style="text;html=1;resizable=0;autosize=1;align=center;verticalAlign=middle;points=[];fillColor=none;strokeColor=none;rounded=0;" parent="1" vertex="1">
          <mxGeometry x="360" y="970" width="250" height="20" as="geometry" />
        </mxCell>
        <mxCell id="xGOP9Eh6eVyP-2dt73vl-1" value="Indirect Provider" style="text;html=1;resizable=0;autosize=1;align=center;verticalAlign=middle;points=[];fillColor=none;strokeColor=none;rounded=0;" parent="1" vertex="1">
          <mxGeometry x="35" y="2478" width="100" height="20" as="geometry" />
        </mxCell>
        <mxCell id="xGOP9Eh6eVyP-2dt73vl-12" style="edgeStyle=orthogonalEdgeStyle;rounded=0;orthogonalLoop=1;jettySize=auto;html=1;entryX=0;entryY=0.5;entryDx=0;entryDy=0;" parent="1" source="xGOP9Eh6eVyP-2dt73vl-3" target="xGOP9Eh6eVyP-2dt73vl-4" edge="1">
          <mxGeometry relative="1" as="geometry" />
        </mxCell>
        <mxCell id="xGOP9Eh6eVyP-2dt73vl-3" value="Indirect Provider 등록" style="strokeWidth=2;html=1;shape=mxgraph.flowchart.terminator;whiteSpace=wrap;" parent="1" vertex="1">
          <mxGeometry x="44" y="2546" width="125" height="40" as="geometry" />
        </mxCell>
        <mxCell id="xGOP9Eh6eVyP-2dt73vl-13" style="edgeStyle=orthogonalEdgeStyle;rounded=0;orthogonalLoop=1;jettySize=auto;html=1;" parent="1" source="xGOP9Eh6eVyP-2dt73vl-4" target="xGOP9Eh6eVyP-2dt73vl-5" edge="1">
          <mxGeometry relative="1" as="geometry" />
        </mxCell>
        <mxCell id="xGOP9Eh6eVyP-2dt73vl-4" value="파트너 관계요청&lt;br&gt;(To 리셀러)" style="whiteSpace=wrap;html=1;strokeWidth=2;" parent="1" vertex="1">
          <mxGeometry x="243" y="2551" width="120" height="30" as="geometry" />
        </mxCell>
        <mxCell id="xGOP9Eh6eVyP-2dt73vl-5" value="리셀러 승인" style="whiteSpace=wrap;html=1;strokeWidth=2;" parent="1" vertex="1">
          <mxGeometry x="439" y="2551" width="120" height="30" as="geometry" />
        </mxCell>
        <mxCell id="xGOP9Eh6eVyP-2dt73vl-6" value="*Provider로부터 메일수신" style="text;html=1;resizable=0;autosize=1;align=center;verticalAlign=middle;points=[];fillColor=none;strokeColor=none;rounded=0;" parent="1" vertex="1">
          <mxGeometry x="491.25" y="110" width="150" height="20" as="geometry" />
        </mxCell>
        <mxCell id="xGOP9Eh6eVyP-2dt73vl-7" value="*메일발신" style="text;html=1;resizable=0;autosize=1;align=center;verticalAlign=middle;points=[];fillColor=none;strokeColor=none;rounded=0;" parent="1" vertex="1">
          <mxGeometry x="268" y="2531" width="70" height="20" as="geometry" />
        </mxCell>
        <mxCell id="xGOP9Eh6eVyP-2dt73vl-15" value="1) 리셀러 관계구축" style="text;html=1;resizable=0;autosize=1;align=center;verticalAlign=middle;points=[];fillColor=none;strokeColor=none;rounded=0;" parent="1" vertex="1">
          <mxGeometry x="37.5" y="2518" width="120" height="20" as="geometry" />
        </mxCell>
        <mxCell id="xGOP9Eh6eVyP-2dt73vl-16" value="2) 고객사 신규추가" style="text;html=1;resizable=0;autosize=1;align=center;verticalAlign=middle;points=[];fillColor=none;strokeColor=none;rounded=0;" parent="1" vertex="1">
          <mxGeometry x="40" y="2688" width="120" height="20" as="geometry" />
        </mxCell>
        <mxCell id="5rJymScOoRONWZvCWUrG-1" value="To 고객사" style="text;html=1;resizable=0;autosize=1;align=center;verticalAlign=middle;points=[];fillColor=none;strokeColor=none;rounded=0;" parent="1" vertex="1">
          <mxGeometry x="257.75" y="2315" width="70" height="20" as="geometry" />
        </mxCell>
        <mxCell id="5rJymScOoRONWZvCWUrG-2" value="End User" style="text;html=1;resizable=0;autosize=1;align=center;verticalAlign=middle;points=[];fillColor=none;strokeColor=none;rounded=0;" parent="1" vertex="1">
          <mxGeometry x="51.25" y="3278" width="70" height="20" as="geometry" />
        </mxCell>
        <mxCell id="FI80l3QKtq1fP2HwdgS9-1" value="4) 빌링" style="text;html=1;resizable=0;autosize=1;align=center;verticalAlign=middle;points=[];fillColor=none;strokeColor=none;rounded=0;" parent="1" vertex="1">
          <mxGeometry x="47.5" y="3118" width="50" height="20" as="geometry" />
        </mxCell>
        <mxCell id="FI80l3QKtq1fP2HwdgS9-2" style="edgeStyle=orthogonalEdgeStyle;rounded=0;orthogonalLoop=1;jettySize=auto;html=1;entryX=0;entryY=0.5;entryDx=0;entryDy=0;" parent="1" source="FI80l3QKtq1fP2HwdgS9-3" target="FI80l3QKtq1fP2HwdgS9-5" edge="1">
          <mxGeometry relative="1" as="geometry" />
        </mxCell>
        <mxCell id="FI80l3QKtq1fP2HwdgS9-3" value="사용량 / 비용 확인" style="strokeWidth=2;html=1;shape=mxgraph.flowchart.terminator;whiteSpace=wrap;" parent="1" vertex="1">
          <mxGeometry x="50" y="3148" width="125" height="40" as="geometry" />
        </mxCell>
        <mxCell id="FI80l3QKtq1fP2HwdgS9-4" style="edgeStyle=orthogonalEdgeStyle;rounded=0;orthogonalLoop=1;jettySize=auto;html=1;entryX=0;entryY=0.5;entryDx=0;entryDy=0;" parent="1" source="FI80l3QKtq1fP2HwdgS9-5" target="FI80l3QKtq1fP2HwdgS9-7" edge="1">
          <mxGeometry relative="1" as="geometry" />
        </mxCell>
        <mxCell id="FI80l3QKtq1fP2HwdgS9-5" value="인보이스 발행" style="whiteSpace=wrap;html=1;strokeWidth=2;" parent="1" vertex="1">
          <mxGeometry x="249" y="3153" width="120" height="30" as="geometry" />
        </mxCell>
        <mxCell id="FI80l3QKtq1fP2HwdgS9-6" style="edgeStyle=orthogonalEdgeStyle;rounded=0;orthogonalLoop=1;jettySize=auto;html=1;entryX=0;entryY=0.5;entryDx=0;entryDy=0;" parent="1" source="FI80l3QKtq1fP2HwdgS9-7" target="FI80l3QKtq1fP2HwdgS9-8" edge="1">
          <mxGeometry relative="1" as="geometry" />
        </mxCell>
        <mxCell id="FI80l3QKtq1fP2HwdgS9-7" value="리셀러 대금 수취" style="whiteSpace=wrap;html=1;strokeWidth=2;" parent="1" vertex="1">
          <mxGeometry x="445" y="3153" width="120" height="30" as="geometry" />
        </mxCell>
        <mxCell id="FI80l3QKtq1fP2HwdgS9-8" value="MS 대금 지불" style="whiteSpace=wrap;html=1;strokeWidth=2;" parent="1" vertex="1">
          <mxGeometry x="645" y="3153" width="120" height="30" as="geometry" />
        </mxCell>
        <mxCell id="FI80l3QKtq1fP2HwdgS9-9" value="To 리셀러" style="text;html=1;resizable=0;autosize=1;align=center;verticalAlign=middle;points=[];fillColor=none;strokeColor=none;rounded=0;" parent="1" vertex="1">
          <mxGeometry x="269.5" y="3133" width="70" height="20" as="geometry" />
        </mxCell>
        <mxCell id="_ZmIt5JVzIrqZUVVzqY8-4" style="edgeStyle=orthogonalEdgeStyle;rounded=0;orthogonalLoop=1;jettySize=auto;html=1;entryX=0;entryY=0.5;entryDx=0;entryDy=0;" parent="1" source="_ZmIt5JVzIrqZUVVzqY8-1" target="_ZmIt5JVzIrqZUVVzqY8-3" edge="1">
          <mxGeometry relative="1" as="geometry" />
        </mxCell>
        <mxCell id="_ZmIt5JVzIrqZUVVzqY8-1" value="MS Authenticator&lt;br&gt;인증" style="whiteSpace=wrap;html=1;strokeWidth=2;" parent="1" vertex="1">
          <mxGeometry x="1310" y="305" width="120" height="30" as="geometry" />
        </mxCell>
        <mxCell id="_ZmIt5JVzIrqZUVVzqY8-3" value="로그인 완료" style="whiteSpace=wrap;html=1;strokeWidth=2;" parent="1" vertex="1">
          <mxGeometry x="1490" y="305" width="120" height="30" as="geometry" />
        </mxCell>
        <mxCell id="_ZmIt5JVzIrqZUVVzqY8-5" style="edgeStyle=orthogonalEdgeStyle;rounded=0;orthogonalLoop=1;jettySize=auto;html=1;entryX=0;entryY=0.5;entryDx=0;entryDy=0;" parent="1" source="_ZmIt5JVzIrqZUVVzqY8-6" target="_ZmIt5JVzIrqZUVVzqY8-9" edge="1">
          <mxGeometry relative="1" as="geometry" />
        </mxCell>
        <mxCell id="_ZmIt5JVzIrqZUVVzqY8-6" value="사용자 추가" style="strokeWidth=2;html=1;shape=mxgraph.flowchart.terminator;whiteSpace=wrap;" parent="1" vertex="1">
          <mxGeometry x="45" y="3368" width="115" height="40" as="geometry" />
        </mxCell>
        <mxCell id="_ZmIt5JVzIrqZUVVzqY8-7" value="*관리자 권한" style="text;html=1;resizable=0;autosize=1;align=center;verticalAlign=middle;points=[];fillColor=none;strokeColor=none;rounded=0;" parent="1" vertex="1">
          <mxGeometry x="60" y="3348" width="80" height="20" as="geometry" />
        </mxCell>
        <mxCell id="_ZmIt5JVzIrqZUVVzqY8-8" style="edgeStyle=orthogonalEdgeStyle;rounded=0;orthogonalLoop=1;jettySize=auto;html=1;entryX=0;entryY=0.5;entryDx=0;entryDy=0;" parent="1" source="_ZmIt5JVzIrqZUVVzqY8-9" target="_ZmIt5JVzIrqZUVVzqY8-13" edge="1">
          <mxGeometry relative="1" as="geometry" />
        </mxCell>
        <mxCell id="_ZmIt5JVzIrqZUVVzqY8-9" value="사용자 정보입력" style="whiteSpace=wrap;html=1;strokeWidth=2;" parent="1" vertex="1">
          <mxGeometry x="226" y="3373" width="120" height="30" as="geometry" />
        </mxCell>
        <mxCell id="_ZmIt5JVzIrqZUVVzqY8-10" value="" style="shape=datastore;whiteSpace=wrap;html=1;" parent="1" vertex="1">
          <mxGeometry x="226" y="3408" width="35" height="30" as="geometry" />
        </mxCell>
        <mxCell id="_ZmIt5JVzIrqZUVVzqY8-11" value="&lt;span&gt;사용자정보&lt;/span&gt;&lt;br&gt;&lt;div style=&quot;font-size: 10px&quot;&gt;&lt;span style=&quot;font-size: 10px&quot;&gt;: 이름, ID(이메일), PW, 전화번호, 직책&lt;/span&gt;&lt;/div&gt;&lt;div style=&quot;font-size: 10px&quot;&gt;&lt;span&gt;(관리자뷰)활성화토글, 권한부여&amp;nbsp;&lt;/span&gt;&lt;/div&gt;" style="text;html=1;resizable=0;autosize=1;align=left;verticalAlign=middle;points=[];fillColor=none;strokeColor=none;rounded=0;fontSize=10;" parent="1" vertex="1">
          <mxGeometry x="226" y="3448" width="190" height="40" as="geometry" />
        </mxCell>
        <mxCell id="_ZmIt5JVzIrqZUVVzqY8-12" style="edgeStyle=orthogonalEdgeStyle;rounded=0;orthogonalLoop=1;jettySize=auto;html=1;entryX=0;entryY=0.5;entryDx=0;entryDy=0;" parent="1" source="_ZmIt5JVzIrqZUVVzqY8-13" target="_ZmIt5JVzIrqZUVVzqY8-16" edge="1">
          <mxGeometry relative="1" as="geometry" />
        </mxCell>
        <mxCell id="_ZmIt5JVzIrqZUVVzqY8-13" value="이메일 중복체크" style="whiteSpace=wrap;html=1;strokeWidth=2;" parent="1" vertex="1">
          <mxGeometry x="409.25" y="3373" width="120" height="30" as="geometry" />
        </mxCell>
        <mxCell id="_ZmIt5JVzIrqZUVVzqY8-14" value="비밀번호 확인" style="whiteSpace=wrap;html=1;strokeWidth=2;" parent="1" vertex="1">
          <mxGeometry x="409.25" y="3418" width="120" height="30" as="geometry" />
        </mxCell>
        <mxCell id="_ZmIt5JVzIrqZUVVzqY8-15" style="edgeStyle=orthogonalEdgeStyle;rounded=0;orthogonalLoop=1;jettySize=auto;html=1;entryX=0;entryY=0.5;entryDx=0;entryDy=0;" parent="1" source="_ZmIt5JVzIrqZUVVzqY8-16" target="_ZmIt5JVzIrqZUVVzqY8-19" edge="1">
          <mxGeometry relative="1" as="geometry" />
        </mxCell>
        <mxCell id="_ZmIt5JVzIrqZUVVzqY8-16" value="사용자 추가완료" style="whiteSpace=wrap;html=1;strokeWidth=2;" parent="1" vertex="1">
          <mxGeometry x="591" y="3373" width="120" height="30" as="geometry" />
        </mxCell>
        <mxCell id="_ZmIt5JVzIrqZUVVzqY8-17" value="가입완료 메일발송" style="whiteSpace=wrap;html=1;strokeWidth=2;" parent="1" vertex="1">
          <mxGeometry x="591" y="3418" width="120" height="30" as="geometry" />
        </mxCell>
        <mxCell id="_ZmIt5JVzIrqZUVVzqY8-18" style="edgeStyle=orthogonalEdgeStyle;rounded=0;orthogonalLoop=1;jettySize=auto;html=1;entryX=0;entryY=0.5;entryDx=0;entryDy=0;" parent="1" source="_ZmIt5JVzIrqZUVVzqY8-19" target="_ZmIt5JVzIrqZUVVzqY8-20" edge="1">
          <mxGeometry relative="1" as="geometry" />
        </mxCell>
        <mxCell id="_ZmIt5JVzIrqZUVVzqY8-19" value="가입완료 메일확인&lt;br&gt;(초대 URL)" style="whiteSpace=wrap;html=1;strokeWidth=2;" parent="1" vertex="1">
          <mxGeometry x="763.75" y="3373" width="120" height="30" as="geometry" />
        </mxCell>
        <mxCell id="_ZmIt5JVzIrqZUVVzqY8-20" value="로그인" style="whiteSpace=wrap;html=1;strokeWidth=2;" parent="1" vertex="1">
          <mxGeometry x="932.5" y="3373" width="120" height="30" as="geometry" />
        </mxCell>
        <mxCell id="_ZmIt5JVzIrqZUVVzqY8-21" value="1) 사용자 추가" style="text;html=1;resizable=0;autosize=1;align=center;verticalAlign=middle;points=[];fillColor=none;strokeColor=none;rounded=0;" parent="1" vertex="1">
          <mxGeometry x="48.75" y="3321" width="90" height="20" as="geometry" />
        </mxCell>
        <mxCell id="bMdnd7Ke1l1wz5ZGlFLW-1" value="3) 사용자 추가" style="text;html=1;resizable=0;autosize=1;align=center;verticalAlign=middle;points=[];fillColor=none;strokeColor=none;rounded=0;" parent="1" vertex="1">
          <mxGeometry x="45" y="2898" width="90" height="20" as="geometry" />
        </mxCell>
        <mxCell id="bMdnd7Ke1l1wz5ZGlFLW-2" style="edgeStyle=orthogonalEdgeStyle;rounded=0;orthogonalLoop=1;jettySize=auto;html=1;entryX=0;entryY=0.5;entryDx=0;entryDy=0;" parent="1" source="bMdnd7Ke1l1wz5ZGlFLW-3" target="bMdnd7Ke1l1wz5ZGlFLW-9" edge="1">
          <mxGeometry relative="1" as="geometry" />
        </mxCell>
        <mxCell id="bMdnd7Ke1l1wz5ZGlFLW-3" value="고객사 정보입력" style="whiteSpace=wrap;html=1;strokeWidth=2;" parent="1" vertex="1">
          <mxGeometry x="231" y="2723" width="120" height="30" as="geometry" />
        </mxCell>
        <mxCell id="bMdnd7Ke1l1wz5ZGlFLW-4" value="" style="shape=datastore;whiteSpace=wrap;html=1;" parent="1" vertex="1">
          <mxGeometry x="231" y="2758" width="35" height="30" as="geometry" />
        </mxCell>
        <mxCell id="bMdnd7Ke1l1wz5ZGlFLW-5" value="&lt;span&gt;고객사정보&lt;/span&gt;&lt;br&gt;&lt;div style=&quot;font-size: 10px&quot;&gt;&lt;span style=&quot;font-size: 10px&quot;&gt;: 회사명, 대표자명, 사업자번호,&lt;br&gt;&lt;/span&gt;&lt;/div&gt;&lt;div style=&quot;font-size: 10px&quot;&gt;&lt;span style=&quot;font-size: 10px&quot;&gt;&amp;nbsp; 담당자명, 담당자연락처, 담당자이메일,&lt;/span&gt;&lt;/div&gt;&lt;div style=&quot;font-size: 10px&quot;&gt;&lt;span style=&quot;font-size: 10px&quot;&gt;&amp;nbsp; 담당자직책,&amp;nbsp;&lt;/span&gt;&lt;span&gt;국가, 도시, 주, Zipcode, 도로명(빌링주소인지 체크)&lt;/span&gt;&lt;/div&gt;&lt;div style=&quot;font-size: 10px&quot;&gt;&lt;span style=&quot;font-size: 10px&quot;&gt;&amp;nbsp; 도메인 설정, 특별자격, 고객 MCuA계약동의(선택)&lt;/span&gt;&lt;/div&gt;" style="text;html=1;resizable=0;autosize=1;align=left;verticalAlign=middle;points=[];fillColor=none;strokeColor=none;rounded=0;fontSize=10;" parent="1" vertex="1">
          <mxGeometry x="231" y="2788" width="300" height="70" as="geometry" />
        </mxCell>
        <mxCell id="bMdnd7Ke1l1wz5ZGlFLW-6" style="edgeStyle=orthogonalEdgeStyle;rounded=0;orthogonalLoop=1;jettySize=auto;html=1;entryX=0;entryY=0.5;entryDx=0;entryDy=0;" parent="1" source="bMdnd7Ke1l1wz5ZGlFLW-7" target="bMdnd7Ke1l1wz5ZGlFLW-3" edge="1">
          <mxGeometry relative="1" as="geometry" />
        </mxCell>
        <mxCell id="bMdnd7Ke1l1wz5ZGlFLW-7" value="고객사 추가" style="strokeWidth=2;html=1;shape=mxgraph.flowchart.terminator;whiteSpace=wrap;" parent="1" vertex="1">
          <mxGeometry x="47.5" y="2718" width="115" height="40" as="geometry" />
        </mxCell>
        <mxCell id="bMdnd7Ke1l1wz5ZGlFLW-8" style="edgeStyle=orthogonalEdgeStyle;rounded=0;orthogonalLoop=1;jettySize=auto;html=1;entryX=0;entryY=0.5;entryDx=0;entryDy=0;" parent="1" source="bMdnd7Ke1l1wz5ZGlFLW-9" target="bMdnd7Ke1l1wz5ZGlFLW-11" edge="1">
          <mxGeometry relative="1" as="geometry" />
        </mxCell>
        <mxCell id="bMdnd7Ke1l1wz5ZGlFLW-9" value="도메인 중복체크" style="whiteSpace=wrap;html=1;strokeWidth=2;" parent="1" vertex="1">
          <mxGeometry x="412.75" y="2723" width="120" height="30" as="geometry" />
        </mxCell>
        <mxCell id="bMdnd7Ke1l1wz5ZGlFLW-10" style="edgeStyle=orthogonalEdgeStyle;rounded=0;orthogonalLoop=1;jettySize=auto;html=1;entryX=0;entryY=0.5;entryDx=0;entryDy=0;" parent="1" source="bMdnd7Ke1l1wz5ZGlFLW-11" target="bMdnd7Ke1l1wz5ZGlFLW-12" edge="1">
          <mxGeometry relative="1" as="geometry" />
        </mxCell>
        <mxCell id="bMdnd7Ke1l1wz5ZGlFLW-11" value="MCuA 계약동의" style="whiteSpace=wrap;html=1;strokeWidth=2;" parent="1" vertex="1">
          <mxGeometry x="593.75" y="2723" width="120" height="30" as="geometry" />
        </mxCell>
        <mxCell id="bMdnd7Ke1l1wz5ZGlFLW-12" value="고객사 추가완료" style="whiteSpace=wrap;html=1;strokeWidth=2;" parent="1" vertex="1">
          <mxGeometry x="776" y="2723" width="120" height="30" as="geometry" />
        </mxCell>
        <mxCell id="bMdnd7Ke1l1wz5ZGlFLW-13" style="edgeStyle=orthogonalEdgeStyle;rounded=0;orthogonalLoop=1;jettySize=auto;html=1;entryX=0;entryY=0.5;entryDx=0;entryDy=0;" parent="1" source="bMdnd7Ke1l1wz5ZGlFLW-14" target="bMdnd7Ke1l1wz5ZGlFLW-17" edge="1">
          <mxGeometry relative="1" as="geometry" />
        </mxCell>
        <mxCell id="bMdnd7Ke1l1wz5ZGlFLW-14" value="사용자 추가" style="strokeWidth=2;html=1;shape=mxgraph.flowchart.terminator;whiteSpace=wrap;" parent="1" vertex="1">
          <mxGeometry x="45" y="2958" width="115" height="40" as="geometry" />
        </mxCell>
        <mxCell id="bMdnd7Ke1l1wz5ZGlFLW-15" value="*관리자 권한" style="text;html=1;resizable=0;autosize=1;align=center;verticalAlign=middle;points=[];fillColor=none;strokeColor=none;rounded=0;" parent="1" vertex="1">
          <mxGeometry x="60" y="2938" width="80" height="20" as="geometry" />
        </mxCell>
        <mxCell id="bMdnd7Ke1l1wz5ZGlFLW-16" style="edgeStyle=orthogonalEdgeStyle;rounded=0;orthogonalLoop=1;jettySize=auto;html=1;entryX=0;entryY=0.5;entryDx=0;entryDy=0;" parent="1" source="bMdnd7Ke1l1wz5ZGlFLW-17" target="bMdnd7Ke1l1wz5ZGlFLW-21" edge="1">
          <mxGeometry relative="1" as="geometry" />
        </mxCell>
        <mxCell id="bMdnd7Ke1l1wz5ZGlFLW-17" value="사용자 정보입력" style="whiteSpace=wrap;html=1;strokeWidth=2;" parent="1" vertex="1">
          <mxGeometry x="226" y="2963" width="120" height="30" as="geometry" />
        </mxCell>
        <mxCell id="bMdnd7Ke1l1wz5ZGlFLW-18" value="" style="shape=datastore;whiteSpace=wrap;html=1;" parent="1" vertex="1">
          <mxGeometry x="226" y="2998" width="35" height="30" as="geometry" />
        </mxCell>
        <mxCell id="bMdnd7Ke1l1wz5ZGlFLW-19" value="&lt;span&gt;사용자정보&lt;/span&gt;&lt;br&gt;&lt;div style=&quot;font-size: 10px&quot;&gt;&lt;span style=&quot;font-size: 10px&quot;&gt;: 이름, ID(이메일), PW, 전화번호, 직책&lt;/span&gt;&lt;/div&gt;&lt;div style=&quot;font-size: 10px&quot;&gt;&lt;span&gt;(관리자뷰)활성화토글, 권한부여&amp;nbsp;&lt;/span&gt;&lt;/div&gt;" style="text;html=1;resizable=0;autosize=1;align=left;verticalAlign=middle;points=[];fillColor=none;strokeColor=none;rounded=0;fontSize=10;" parent="1" vertex="1">
          <mxGeometry x="226" y="3038" width="190" height="40" as="geometry" />
        </mxCell>
        <mxCell id="bMdnd7Ke1l1wz5ZGlFLW-20" style="edgeStyle=orthogonalEdgeStyle;rounded=0;orthogonalLoop=1;jettySize=auto;html=1;entryX=0;entryY=0.5;entryDx=0;entryDy=0;" parent="1" source="bMdnd7Ke1l1wz5ZGlFLW-21" target="bMdnd7Ke1l1wz5ZGlFLW-24" edge="1">
          <mxGeometry relative="1" as="geometry" />
        </mxCell>
        <mxCell id="bMdnd7Ke1l1wz5ZGlFLW-21" value="이메일 중복체크" style="whiteSpace=wrap;html=1;strokeWidth=2;" parent="1" vertex="1">
          <mxGeometry x="409.25" y="2963" width="120" height="30" as="geometry" />
        </mxCell>
        <mxCell id="bMdnd7Ke1l1wz5ZGlFLW-22" value="비밀번호 확인" style="whiteSpace=wrap;html=1;strokeWidth=2;" parent="1" vertex="1">
          <mxGeometry x="409.25" y="3008" width="120" height="30" as="geometry" />
        </mxCell>
        <mxCell id="bMdnd7Ke1l1wz5ZGlFLW-23" style="edgeStyle=orthogonalEdgeStyle;rounded=0;orthogonalLoop=1;jettySize=auto;html=1;entryX=0;entryY=0.5;entryDx=0;entryDy=0;" parent="1" source="bMdnd7Ke1l1wz5ZGlFLW-24" target="bMdnd7Ke1l1wz5ZGlFLW-27" edge="1">
          <mxGeometry relative="1" as="geometry" />
        </mxCell>
        <mxCell id="bMdnd7Ke1l1wz5ZGlFLW-24" value="사용자 추가완료" style="whiteSpace=wrap;html=1;strokeWidth=2;" parent="1" vertex="1">
          <mxGeometry x="591" y="2963" width="120" height="30" as="geometry" />
        </mxCell>
        <mxCell id="bMdnd7Ke1l1wz5ZGlFLW-25" value="가입완료 메일발송" style="whiteSpace=wrap;html=1;strokeWidth=2;" parent="1" vertex="1">
          <mxGeometry x="591" y="3008" width="120" height="30" as="geometry" />
        </mxCell>
        <mxCell id="bMdnd7Ke1l1wz5ZGlFLW-26" style="edgeStyle=orthogonalEdgeStyle;rounded=0;orthogonalLoop=1;jettySize=auto;html=1;entryX=0;entryY=0.5;entryDx=0;entryDy=0;" parent="1" source="bMdnd7Ke1l1wz5ZGlFLW-27" target="bMdnd7Ke1l1wz5ZGlFLW-28" edge="1">
          <mxGeometry relative="1" as="geometry" />
        </mxCell>
        <mxCell id="bMdnd7Ke1l1wz5ZGlFLW-27" value="가입완료 메일확인&lt;br&gt;(초대 URL)" style="whiteSpace=wrap;html=1;strokeWidth=2;" parent="1" vertex="1">
          <mxGeometry x="763.75" y="2963" width="120" height="30" as="geometry" />
        </mxCell>
        <mxCell id="bMdnd7Ke1l1wz5ZGlFLW-28" value="로그인" style="whiteSpace=wrap;html=1;strokeWidth=2;" parent="1" vertex="1">
          <mxGeometry x="932.5" y="2963" width="120" height="30" as="geometry" />
        </mxCell>
        <mxCell id="bMdnd7Ke1l1wz5ZGlFLW-29" value="TO 리셀러 대표메일" style="text;html=1;resizable=0;autosize=1;align=left;verticalAlign=middle;points=[];fillColor=none;strokeColor=none;rounded=0;fontSize=10;" parent="1" vertex="1">
          <mxGeometry x="601.25" y="645" width="110" height="20" as="geometry" />
        </mxCell>
        <mxCell id="bMdnd7Ke1l1wz5ZGlFLW-30" value="To Provider 대표메일" style="text;html=1;resizable=0;autosize=1;align=left;verticalAlign=middle;points=[];fillColor=none;strokeColor=none;rounded=0;fontSize=10;" parent="1" vertex="1">
          <mxGeometry x="602.5" y="3038" width="110" height="20" as="geometry" />
        </mxCell>
        <mxCell id="bMdnd7Ke1l1wz5ZGlFLW-31" value="To End-User 대표메일" style="text;html=1;resizable=0;autosize=1;align=left;verticalAlign=middle;points=[];fillColor=none;strokeColor=none;rounded=0;fontSize=10;" parent="1" vertex="1">
          <mxGeometry x="602.5" y="3458" width="110" height="20" as="geometry" />
        </mxCell>
        <mxCell id="jiECZz7fGckPXylajzZf-2" value="*포탈과 별도" style="text;html=1;resizable=0;autosize=1;align=center;verticalAlign=middle;points=[];fillColor=none;strokeColor=none;rounded=0;" parent="1" vertex="1">
          <mxGeometry x="212.5" y="210" width="80" height="20" as="geometry" />
        </mxCell>
        <mxCell id="jiECZz7fGckPXylajzZf-5" value="" style="endArrow=none;html=1;rounded=0;" parent="1" edge="1">
          <mxGeometry width="50" height="50" relative="1" as="geometry">
            <mxPoint x="300" y="1210" as="sourcePoint" />
            <mxPoint x="393.5" y="1209.5" as="targetPoint" />
          </mxGeometry>
        </mxCell>
        <mxCell id="jiECZz7fGckPXylajzZf-6" value="" style="endArrow=none;html=1;rounded=0;" parent="1" edge="1">
          <mxGeometry width="50" height="50" relative="1" as="geometry">
            <mxPoint x="394.75" y="1152" as="sourcePoint" />
            <mxPoint x="393" y="2000" as="targetPoint" />
          </mxGeometry>
        </mxCell>
        <mxCell id="jiECZz7fGckPXylajzZf-7" value="" style="endArrow=classic;html=1;rounded=0;" parent="1" edge="1">
          <mxGeometry width="50" height="50" relative="1" as="geometry">
            <mxPoint x="394.75" y="1154" as="sourcePoint" />
            <mxPoint x="451.5" y="1154.5" as="targetPoint" />
          </mxGeometry>
        </mxCell>
        <mxCell id="jiECZz7fGckPXylajzZf-8" value="" style="endArrow=classic;html=1;rounded=0;" parent="1" edge="1">
          <mxGeometry width="50" height="50" relative="1" as="geometry">
            <mxPoint x="393.88" y="1419.5" as="sourcePoint" />
            <mxPoint x="450.63" y="1420" as="targetPoint" />
          </mxGeometry>
        </mxCell>
        <mxCell id="jiECZz7fGckPXylajzZf-9" value="" style="endArrow=classic;html=1;rounded=0;entryX=0;entryY=0.5;entryDx=0;entryDy=0;" parent="1" target="MoLYa7cNz7H3YmrfVmoX-8" edge="1">
          <mxGeometry width="50" height="50" relative="1" as="geometry">
            <mxPoint x="394.0000000000001" y="1750.5" as="sourcePoint" />
            <mxPoint x="451" y="1751" as="targetPoint" />
          </mxGeometry>
        </mxCell>
        <mxCell id="jiECZz7fGckPXylajzZf-10" value="" style="endArrow=classic;html=1;rounded=0;" parent="1" edge="1">
          <mxGeometry width="50" height="50" relative="1" as="geometry">
            <mxPoint x="394.25" y="2001.5" as="sourcePoint" />
            <mxPoint x="450.75" y="2002" as="targetPoint" />
          </mxGeometry>
        </mxCell>
        <mxCell id="jiECZz7fGckPXylajzZf-11" style="edgeStyle=orthogonalEdgeStyle;rounded=0;orthogonalLoop=1;jettySize=auto;html=1;" parent="1" edge="1">
          <mxGeometry relative="1" as="geometry">
            <mxPoint x="571.5" y="1153.5" as="sourcePoint" />
            <mxPoint x="618" y="1154" as="targetPoint" />
            <Array as="points">
              <mxPoint x="611.5" y="1154.5" />
              <mxPoint x="611.5" y="1154.5" />
            </Array>
          </mxGeometry>
        </mxCell>
        <mxCell id="jiECZz7fGckPXylajzZf-14" style="edgeStyle=orthogonalEdgeStyle;rounded=0;orthogonalLoop=1;jettySize=auto;html=1;entryX=0;entryY=0.5;entryDx=0;entryDy=0;" parent="1" source="jiECZz7fGckPXylajzZf-12" target="jiECZz7fGckPXylajzZf-13" edge="1">
          <mxGeometry relative="1" as="geometry" />
        </mxCell>
        <mxCell id="jiECZz7fGckPXylajzZf-12" value="수량 및 단가 조정" style="whiteSpace=wrap;html=1;strokeWidth=2;" parent="1" vertex="1">
          <mxGeometry x="621" y="1140" width="120" height="30" as="geometry" />
        </mxCell>
        <mxCell id="jiECZz7fGckPXylajzZf-16" style="edgeStyle=orthogonalEdgeStyle;rounded=0;orthogonalLoop=1;jettySize=auto;html=1;entryX=0;entryY=0.5;entryDx=0;entryDy=0;" parent="1" source="jiECZz7fGckPXylajzZf-13" target="jiECZz7fGckPXylajzZf-15" edge="1">
          <mxGeometry relative="1" as="geometry" />
        </mxCell>
        <mxCell id="jiECZz7fGckPXylajzZf-13" value="오기입 안내 및&lt;br&gt;공급사 미책임 동의" style="whiteSpace=wrap;html=1;strokeWidth=2;" parent="1" vertex="1">
          <mxGeometry x="791" y="1140" width="120" height="30" as="geometry" />
        </mxCell>
        <mxCell id="jiECZz7fGckPXylajzZf-19" style="edgeStyle=orthogonalEdgeStyle;rounded=0;orthogonalLoop=1;jettySize=auto;html=1;entryX=0;entryY=0.5;entryDx=0;entryDy=0;" parent="1" source="jiECZz7fGckPXylajzZf-15" target="jiECZz7fGckPXylajzZf-18" edge="1">
          <mxGeometry relative="1" as="geometry" />
        </mxCell>
        <mxCell id="jiECZz7fGckPXylajzZf-15" value="주문신청" style="whiteSpace=wrap;html=1;strokeWidth=2;" parent="1" vertex="1">
          <mxGeometry x="960" y="1140" width="120" height="30" as="geometry" />
        </mxCell>
        <mxCell id="jiECZz7fGckPXylajzZf-20" style="edgeStyle=orthogonalEdgeStyle;rounded=0;orthogonalLoop=1;jettySize=auto;html=1;" parent="1" source="jiECZz7fGckPXylajzZf-18" edge="1">
          <mxGeometry relative="1" as="geometry">
            <mxPoint x="1080" y="1218" as="targetPoint" />
            <Array as="points">
              <mxPoint x="1169" y="1218" />
              <mxPoint x="1130" y="1218" />
            </Array>
          </mxGeometry>
        </mxCell>
        <mxCell id="jiECZz7fGckPXylajzZf-28" style="edgeStyle=orthogonalEdgeStyle;rounded=0;orthogonalLoop=1;jettySize=auto;html=1;entryX=0;entryY=0.5;entryDx=0;entryDy=0;" parent="1" source="jiECZz7fGckPXylajzZf-18" target="jiECZz7fGckPXylajzZf-27" edge="1">
          <mxGeometry relative="1" as="geometry" />
        </mxCell>
        <mxCell id="jiECZz7fGckPXylajzZf-18" value="공급사&lt;br&gt;승인여부" style="rhombus;whiteSpace=wrap;html=1;" parent="1" vertex="1">
          <mxGeometry x="1128.5" y="1115" width="80" height="80" as="geometry" />
        </mxCell>
        <mxCell id="jiECZz7fGckPXylajzZf-22" style="edgeStyle=orthogonalEdgeStyle;rounded=0;orthogonalLoop=1;jettySize=auto;html=1;entryX=0.5;entryY=1;entryDx=0;entryDy=0;" parent="1" source="jiECZz7fGckPXylajzZf-21" target="jiECZz7fGckPXylajzZf-15" edge="1">
          <mxGeometry relative="1" as="geometry" />
        </mxCell>
        <mxCell id="jiECZz7fGckPXylajzZf-53" style="edgeStyle=orthogonalEdgeStyle;rounded=0;orthogonalLoop=1;jettySize=auto;html=1;entryX=0.5;entryY=0;entryDx=0;entryDy=0;" parent="1" source="jiECZz7fGckPXylajzZf-21" target="jiECZz7fGckPXylajzZf-52" edge="1">
          <mxGeometry relative="1" as="geometry" />
        </mxCell>
        <mxCell id="jiECZz7fGckPXylajzZf-21" value="주문반려" style="whiteSpace=wrap;html=1;strokeWidth=2;" parent="1" vertex="1">
          <mxGeometry x="960" y="1203" width="120" height="30" as="geometry" />
        </mxCell>
        <mxCell id="jiECZz7fGckPXylajzZf-23" value="No" style="text;html=1;resizable=0;autosize=1;align=center;verticalAlign=middle;points=[];fillColor=none;strokeColor=none;rounded=0;" parent="1" vertex="1">
          <mxGeometry x="1171.5" y="1195" width="30" height="20" as="geometry" />
        </mxCell>
        <mxCell id="jiECZz7fGckPXylajzZf-24" value="공급사 검토(가격, 여신)" style="text;html=1;resizable=0;autosize=1;align=center;verticalAlign=middle;points=[];fillColor=none;strokeColor=none;rounded=0;" parent="1" vertex="1">
          <mxGeometry x="1093.5" y="1090" width="140" height="20" as="geometry" />
        </mxCell>
        <mxCell id="jiECZz7fGckPXylajzZf-47" style="edgeStyle=orthogonalEdgeStyle;rounded=0;orthogonalLoop=1;jettySize=auto;html=1;entryX=0;entryY=0.5;entryDx=0;entryDy=0;" parent="1" source="jiECZz7fGckPXylajzZf-27" target="jiECZz7fGckPXylajzZf-33" edge="1">
          <mxGeometry relative="1" as="geometry" />
        </mxCell>
        <mxCell id="jiECZz7fGckPXylajzZf-27" value="주문접수" style="whiteSpace=wrap;html=1;strokeWidth=2;" parent="1" vertex="1">
          <mxGeometry x="1260" y="1140" width="120" height="30" as="geometry" />
        </mxCell>
        <mxCell id="jiECZz7fGckPXylajzZf-30" value="Yes" style="text;html=1;resizable=0;autosize=1;align=center;verticalAlign=middle;points=[];fillColor=none;strokeColor=none;rounded=0;" parent="1" vertex="1">
          <mxGeometry x="1203.5" y="1130" width="30" height="20" as="geometry" />
        </mxCell>
        <mxCell id="jiECZz7fGckPXylajzZf-31" value="-주문 반려시 내용수정 가능" style="text;html=1;resizable=0;autosize=1;align=center;verticalAlign=middle;points=[];fillColor=none;strokeColor=none;rounded=0;" parent="1" vertex="1">
          <mxGeometry x="1025" y="1233" width="160" height="20" as="geometry" />
        </mxCell>
        <mxCell id="jiECZz7fGckPXylajzZf-49" style="edgeStyle=orthogonalEdgeStyle;rounded=0;orthogonalLoop=1;jettySize=auto;html=1;entryX=0;entryY=0.5;entryDx=0;entryDy=0;" parent="1" source="jiECZz7fGckPXylajzZf-33" edge="1">
          <mxGeometry relative="1" as="geometry">
            <mxPoint x="1600" y="1155" as="targetPoint" />
          </mxGeometry>
        </mxCell>
        <mxCell id="jiECZz7fGckPXylajzZf-33" value="주문내역서 &lt;br&gt;이메일 전송" style="whiteSpace=wrap;html=1;strokeWidth=2;" parent="1" vertex="1">
          <mxGeometry x="1430" y="1140" width="120" height="30" as="geometry" />
        </mxCell>
        <mxCell id="jiECZz7fGckPXylajzZf-37" style="edgeStyle=orthogonalEdgeStyle;rounded=0;orthogonalLoop=1;jettySize=auto;html=1;entryX=0;entryY=0.5;entryDx=0;entryDy=0;" parent="1" source="jiECZz7fGckPXylajzZf-34" target="jiECZz7fGckPXylajzZf-36" edge="1">
          <mxGeometry relative="1" as="geometry" />
        </mxCell>
        <mxCell id="jiECZz7fGckPXylajzZf-34" value="MS 접수" style="whiteSpace=wrap;html=1;strokeWidth=2;" parent="1" vertex="1">
          <mxGeometry x="1730" y="1140" width="120" height="30" as="geometry" />
        </mxCell>
        <mxCell id="jiECZz7fGckPXylajzZf-57" style="edgeStyle=orthogonalEdgeStyle;rounded=0;orthogonalLoop=1;jettySize=auto;html=1;entryX=0;entryY=0.5;entryDx=0;entryDy=0;" parent="1" source="jiECZz7fGckPXylajzZf-36" target="jiECZz7fGckPXylajzZf-56" edge="1">
          <mxGeometry relative="1" as="geometry" />
        </mxCell>
        <mxCell id="jiECZz7fGckPXylajzZf-36" value="주문완료" style="whiteSpace=wrap;html=1;strokeWidth=2;" parent="1" vertex="1">
          <mxGeometry x="1900" y="1140" width="120" height="30" as="geometry" />
        </mxCell>
        <mxCell id="jiECZz7fGckPXylajzZf-39" style="edgeStyle=orthogonalEdgeStyle;rounded=0;orthogonalLoop=1;jettySize=auto;html=1;entryX=0;entryY=0.5;entryDx=0;entryDy=0;" parent="1" target="jiECZz7fGckPXylajzZf-40" edge="1">
          <mxGeometry relative="1" as="geometry">
            <mxPoint x="571" y="1420" as="sourcePoint" />
          </mxGeometry>
        </mxCell>
        <mxCell id="jiECZz7fGckPXylajzZf-43" style="edgeStyle=orthogonalEdgeStyle;rounded=0;orthogonalLoop=1;jettySize=auto;html=1;" parent="1" source="jiECZz7fGckPXylajzZf-40" edge="1">
          <mxGeometry relative="1" as="geometry">
            <mxPoint x="790" y="1420" as="targetPoint" />
          </mxGeometry>
        </mxCell>
        <mxCell id="jiECZz7fGckPXylajzZf-40" value="오기입 안내 및&lt;br&gt;공급사 미책임 동의" style="whiteSpace=wrap;html=1;strokeWidth=2;" parent="1" vertex="1">
          <mxGeometry x="621" y="1405" width="120" height="30" as="geometry" />
        </mxCell>
        <mxCell id="jiECZz7fGckPXylajzZf-42" value="주문신청" style="whiteSpace=wrap;html=1;strokeWidth=2;" parent="1" vertex="1">
          <mxGeometry x="791" y="1405" width="120" height="30" as="geometry" />
        </mxCell>
        <mxCell id="jiECZz7fGckPXylajzZf-102" style="edgeStyle=orthogonalEdgeStyle;rounded=0;orthogonalLoop=1;jettySize=auto;html=1;entryX=0;entryY=0.5;entryDx=0;entryDy=0;" parent="1" source="jiECZz7fGckPXylajzZf-44" target="jiECZz7fGckPXylajzZf-100" edge="1">
          <mxGeometry relative="1" as="geometry" />
        </mxCell>
        <mxCell id="jiECZz7fGckPXylajzZf-44" value="주문완료" style="whiteSpace=wrap;html=1;strokeWidth=2;" parent="1" vertex="1">
          <mxGeometry x="1740" y="1405" width="120" height="30" as="geometry" />
        </mxCell>
        <mxCell id="jiECZz7fGckPXylajzZf-50" style="edgeStyle=orthogonalEdgeStyle;rounded=0;orthogonalLoop=1;jettySize=auto;html=1;" parent="1" target="jiECZz7fGckPXylajzZf-34" edge="1">
          <mxGeometry relative="1" as="geometry">
            <mxPoint x="1680" y="1155" as="sourcePoint" />
          </mxGeometry>
        </mxCell>
        <mxCell id="jiECZz7fGckPXylajzZf-52" value="주문취소" style="whiteSpace=wrap;html=1;strokeWidth=2;" parent="1" vertex="1">
          <mxGeometry x="960" y="1270" width="120" height="30" as="geometry" />
        </mxCell>
        <mxCell id="jiECZz7fGckPXylajzZf-58" style="edgeStyle=orthogonalEdgeStyle;rounded=0;orthogonalLoop=1;jettySize=auto;html=1;entryX=0;entryY=0.5;entryDx=0;entryDy=0;" parent="1" source="jiECZz7fGckPXylajzZf-56" target="MoLYa7cNz7H3YmrfVmoX-20" edge="1">
          <mxGeometry relative="1" as="geometry" />
        </mxCell>
        <mxCell id="jiECZz7fGckPXylajzZf-56" value="완료안내메일 발송" style="whiteSpace=wrap;html=1;strokeWidth=2;" parent="1" vertex="1">
          <mxGeometry x="2070" y="1140" width="120" height="30" as="geometry" />
        </mxCell>
        <mxCell id="jiECZz7fGckPXylajzZf-63" style="edgeStyle=orthogonalEdgeStyle;rounded=0;orthogonalLoop=1;jettySize=auto;html=1;entryX=1;entryY=0.5;entryDx=0;entryDy=0;" parent="1" source="jiECZz7fGckPXylajzZf-60" target="jiECZz7fGckPXylajzZf-52" edge="1">
          <mxGeometry relative="1" as="geometry">
            <Array as="points">
              <mxPoint x="1640" y="1285" />
            </Array>
          </mxGeometry>
        </mxCell>
        <mxCell id="jiECZz7fGckPXylajzZf-60" value="주문확인&lt;br&gt;버튼클릭" style="rhombus;whiteSpace=wrap;html=1;" parent="1" vertex="1">
          <mxGeometry x="1600" y="1115" width="80" height="80" as="geometry" />
        </mxCell>
        <mxCell id="jiECZz7fGckPXylajzZf-61" value="Reseller" style="text;html=1;resizable=0;autosize=1;align=center;verticalAlign=middle;points=[];fillColor=none;strokeColor=none;rounded=0;" parent="1" vertex="1">
          <mxGeometry x="1607.5" y="1095" width="60" height="20" as="geometry" />
        </mxCell>
        <mxCell id="jiECZz7fGckPXylajzZf-62" value="Yes" style="text;html=1;resizable=0;autosize=1;align=center;verticalAlign=middle;points=[];fillColor=none;strokeColor=none;rounded=0;" parent="1" vertex="1">
          <mxGeometry x="1677.5" y="1130" width="30" height="20" as="geometry" />
        </mxCell>
        <mxCell id="jiECZz7fGckPXylajzZf-64" value="No" style="text;html=1;resizable=0;autosize=1;align=center;verticalAlign=middle;points=[];fillColor=none;strokeColor=none;rounded=0;" parent="1" vertex="1">
          <mxGeometry x="1640" y="1195" width="30" height="20" as="geometry" />
        </mxCell>
        <mxCell id="jiECZz7fGckPXylajzZf-65" value="테넌트 ID(*테넌트 ID가 자동생성되는지 &lt;br&gt;확인필요), &lt;br&gt;PW, 제품명, SKU, &lt;br&gt;청구주기, 계약기간, &lt;br&gt;수량, 금액" style="text;html=1;resizable=0;autosize=1;align=center;verticalAlign=middle;points=[];fillColor=none;strokeColor=none;rounded=0;" parent="1" vertex="1">
          <mxGeometry x="2010" y="1060" width="230" height="80" as="geometry" />
        </mxCell>
        <mxCell id="jiECZz7fGckPXylajzZf-66" value="To Provider / Reseller" style="text;html=1;resizable=0;autosize=1;align=center;verticalAlign=middle;points=[];fillColor=none;strokeColor=none;rounded=0;" parent="1" vertex="1">
          <mxGeometry x="1425" y="1115" width="130" height="20" as="geometry" />
        </mxCell>
        <mxCell id="jiECZz7fGckPXylajzZf-68" value="*테넌트 별 MCuA동의 체크필수" style="text;html=1;resizable=0;autosize=1;align=center;verticalAlign=middle;points=[];fillColor=none;strokeColor=none;rounded=0;" parent="1" vertex="1">
          <mxGeometry x="760" y="1380" width="180" height="20" as="geometry" />
        </mxCell>
        <mxCell id="jiECZz7fGckPXylajzZf-71" style="edgeStyle=orthogonalEdgeStyle;rounded=0;orthogonalLoop=1;jettySize=auto;html=1;entryX=0.5;entryY=1;entryDx=0;entryDy=0;" parent="1" source="jiECZz7fGckPXylajzZf-73" edge="1">
          <mxGeometry relative="1" as="geometry">
            <mxPoint x="851" y="1435" as="targetPoint" />
          </mxGeometry>
        </mxCell>
        <mxCell id="jiECZz7fGckPXylajzZf-72" style="edgeStyle=orthogonalEdgeStyle;rounded=0;orthogonalLoop=1;jettySize=auto;html=1;entryX=0.5;entryY=0;entryDx=0;entryDy=0;" parent="1" source="jiECZz7fGckPXylajzZf-73" target="jiECZz7fGckPXylajzZf-74" edge="1">
          <mxGeometry relative="1" as="geometry" />
        </mxCell>
        <mxCell id="jiECZz7fGckPXylajzZf-73" value="주문반려" style="whiteSpace=wrap;html=1;strokeWidth=2;" parent="1" vertex="1">
          <mxGeometry x="791" y="1468" width="120" height="30" as="geometry" />
        </mxCell>
        <mxCell id="jiECZz7fGckPXylajzZf-74" value="주문취소" style="whiteSpace=wrap;html=1;strokeWidth=2;" parent="1" vertex="1">
          <mxGeometry x="791" y="1535" width="120" height="30" as="geometry" />
        </mxCell>
        <mxCell id="jiECZz7fGckPXylajzZf-75" value="-주문 반려시 내용수정 가능" style="text;html=1;resizable=0;autosize=1;align=center;verticalAlign=middle;points=[];fillColor=none;strokeColor=none;rounded=0;" parent="1" vertex="1">
          <mxGeometry x="850" y="1498" width="160" height="20" as="geometry" />
        </mxCell>
        <mxCell id="jiECZz7fGckPXylajzZf-78" style="edgeStyle=orthogonalEdgeStyle;rounded=0;orthogonalLoop=1;jettySize=auto;html=1;entryX=0;entryY=0.5;entryDx=0;entryDy=0;" parent="1" target="jiECZz7fGckPXylajzZf-81" edge="1">
          <mxGeometry relative="1" as="geometry">
            <mxPoint x="911" y="1419" as="sourcePoint" />
          </mxGeometry>
        </mxCell>
        <mxCell id="jiECZz7fGckPXylajzZf-79" style="edgeStyle=orthogonalEdgeStyle;rounded=0;orthogonalLoop=1;jettySize=auto;html=1;" parent="1" source="jiECZz7fGckPXylajzZf-81" edge="1">
          <mxGeometry relative="1" as="geometry">
            <mxPoint x="911" y="1482" as="targetPoint" />
            <Array as="points">
              <mxPoint x="1000" y="1482" />
              <mxPoint x="961" y="1482" />
            </Array>
          </mxGeometry>
        </mxCell>
        <mxCell id="jiECZz7fGckPXylajzZf-80" style="edgeStyle=orthogonalEdgeStyle;rounded=0;orthogonalLoop=1;jettySize=auto;html=1;entryX=0;entryY=0.5;entryDx=0;entryDy=0;" parent="1" source="jiECZz7fGckPXylajzZf-81" target="jiECZz7fGckPXylajzZf-84" edge="1">
          <mxGeometry relative="1" as="geometry" />
        </mxCell>
        <mxCell id="jiECZz7fGckPXylajzZf-81" value="공급사&lt;br&gt;승인여부" style="rhombus;whiteSpace=wrap;html=1;" parent="1" vertex="1">
          <mxGeometry x="959.5" y="1379" width="80" height="80" as="geometry" />
        </mxCell>
        <mxCell id="jiECZz7fGckPXylajzZf-82" value="No" style="text;html=1;resizable=0;autosize=1;align=center;verticalAlign=middle;points=[];fillColor=none;strokeColor=none;rounded=0;" parent="1" vertex="1">
          <mxGeometry x="1002.5" y="1459" width="30" height="20" as="geometry" />
        </mxCell>
        <mxCell id="jiECZz7fGckPXylajzZf-83" value="공급사 검토(가격)" style="text;html=1;resizable=0;autosize=1;align=center;verticalAlign=middle;points=[];fillColor=none;strokeColor=none;rounded=0;" parent="1" vertex="1">
          <mxGeometry x="939.5" y="1354" width="110" height="20" as="geometry" />
        </mxCell>
        <mxCell id="jiECZz7fGckPXylajzZf-91" style="edgeStyle=orthogonalEdgeStyle;rounded=0;orthogonalLoop=1;jettySize=auto;html=1;entryX=0;entryY=0.5;entryDx=0;entryDy=0;" parent="1" source="jiECZz7fGckPXylajzZf-84" target="jiECZz7fGckPXylajzZf-87" edge="1">
          <mxGeometry relative="1" as="geometry" />
        </mxCell>
        <mxCell id="jiECZz7fGckPXylajzZf-84" value="주문접수" style="whiteSpace=wrap;html=1;strokeWidth=2;" parent="1" vertex="1">
          <mxGeometry x="1091" y="1404" width="120" height="30" as="geometry" />
        </mxCell>
        <mxCell id="jiECZz7fGckPXylajzZf-85" value="Yes" style="text;html=1;resizable=0;autosize=1;align=center;verticalAlign=middle;points=[];fillColor=none;strokeColor=none;rounded=0;" parent="1" vertex="1">
          <mxGeometry x="1034.5" y="1394" width="30" height="20" as="geometry" />
        </mxCell>
        <mxCell id="jiECZz7fGckPXylajzZf-87" value="주문내역서 전송" style="whiteSpace=wrap;html=1;strokeWidth=2;" parent="1" vertex="1">
          <mxGeometry x="1261" y="1404" width="120" height="30" as="geometry" />
        </mxCell>
        <mxCell id="jiECZz7fGckPXylajzZf-88" style="edgeStyle=orthogonalEdgeStyle;rounded=0;orthogonalLoop=1;jettySize=auto;html=1;entryX=1;entryY=0.5;entryDx=0;entryDy=0;" parent="1" edge="1">
          <mxGeometry relative="1" as="geometry">
            <mxPoint x="1471" y="1459" as="sourcePoint" />
            <mxPoint x="911" y="1549" as="targetPoint" />
            <Array as="points">
              <mxPoint x="1471" y="1549" />
            </Array>
          </mxGeometry>
        </mxCell>
        <mxCell id="jiECZz7fGckPXylajzZf-89" value="To Provider / Reseller" style="text;html=1;resizable=0;autosize=1;align=center;verticalAlign=middle;points=[];fillColor=none;strokeColor=none;rounded=0;" parent="1" vertex="1">
          <mxGeometry x="1256" y="1379" width="130" height="20" as="geometry" />
        </mxCell>
        <mxCell id="jiECZz7fGckPXylajzZf-92" style="edgeStyle=orthogonalEdgeStyle;rounded=0;orthogonalLoop=1;jettySize=auto;html=1;entryX=0;entryY=0.5;entryDx=0;entryDy=0;" parent="1" edge="1">
          <mxGeometry relative="1" as="geometry">
            <mxPoint x="1381" y="1419" as="sourcePoint" />
            <mxPoint x="1431" y="1419" as="targetPoint" />
          </mxGeometry>
        </mxCell>
        <mxCell id="jiECZz7fGckPXylajzZf-93" value="주문확인&lt;br&gt;버튼클릭" style="rhombus;whiteSpace=wrap;html=1;" parent="1" vertex="1">
          <mxGeometry x="1431" y="1379" width="80" height="80" as="geometry" />
        </mxCell>
        <mxCell id="jiECZz7fGckPXylajzZf-94" value="Reseller" style="text;html=1;resizable=0;autosize=1;align=center;verticalAlign=middle;points=[];fillColor=none;strokeColor=none;rounded=0;" parent="1" vertex="1">
          <mxGeometry x="1438.5" y="1359" width="60" height="20" as="geometry" />
        </mxCell>
        <mxCell id="jiECZz7fGckPXylajzZf-95" value="Yes" style="text;html=1;resizable=0;autosize=1;align=center;verticalAlign=middle;points=[];fillColor=none;strokeColor=none;rounded=0;" parent="1" vertex="1">
          <mxGeometry x="1508.5" y="1394" width="30" height="20" as="geometry" />
        </mxCell>
        <mxCell id="jiECZz7fGckPXylajzZf-96" value="No" style="text;html=1;resizable=0;autosize=1;align=center;verticalAlign=middle;points=[];fillColor=none;strokeColor=none;rounded=0;" parent="1" vertex="1">
          <mxGeometry x="1471" y="1459" width="30" height="20" as="geometry" />
        </mxCell>
        <mxCell id="jiECZz7fGckPXylajzZf-99" style="edgeStyle=orthogonalEdgeStyle;rounded=0;orthogonalLoop=1;jettySize=auto;html=1;entryX=0;entryY=0.5;entryDx=0;entryDy=0;" parent="1" source="jiECZz7fGckPXylajzZf-97" target="jiECZz7fGckPXylajzZf-44" edge="1">
          <mxGeometry relative="1" as="geometry" />
        </mxCell>
        <mxCell id="jiECZz7fGckPXylajzZf-97" value="MS 접수" style="whiteSpace=wrap;html=1;strokeWidth=2;" parent="1" vertex="1">
          <mxGeometry x="1561" y="1405" width="120" height="30" as="geometry" />
        </mxCell>
        <mxCell id="jiECZz7fGckPXylajzZf-98" style="edgeStyle=orthogonalEdgeStyle;rounded=0;orthogonalLoop=1;jettySize=auto;html=1;" parent="1" target="jiECZz7fGckPXylajzZf-97" edge="1">
          <mxGeometry relative="1" as="geometry">
            <mxPoint x="1511" y="1420" as="sourcePoint" />
          </mxGeometry>
        </mxCell>
        <mxCell id="jiECZz7fGckPXylajzZf-103" style="edgeStyle=orthogonalEdgeStyle;rounded=0;orthogonalLoop=1;jettySize=auto;html=1;" parent="1" source="jiECZz7fGckPXylajzZf-100" target="MoLYa7cNz7H3YmrfVmoX-33" edge="1">
          <mxGeometry relative="1" as="geometry" />
        </mxCell>
        <mxCell id="jiECZz7fGckPXylajzZf-100" value="완료안내메일 발송" style="whiteSpace=wrap;html=1;strokeWidth=2;" parent="1" vertex="1">
          <mxGeometry x="1910" y="1405" width="120" height="30" as="geometry" />
        </mxCell>
        <mxCell id="jiECZz7fGckPXylajzZf-101" value="ID, PW, 제품명, SKU, &lt;br&gt;청구주기, 계약기간" style="text;html=1;resizable=0;autosize=1;align=center;verticalAlign=middle;points=[];fillColor=none;strokeColor=none;rounded=0;" parent="1" vertex="1">
          <mxGeometry x="1905" y="1440" width="130" height="30" as="geometry" />
        </mxCell>
        <mxCell id="jiECZz7fGckPXylajzZf-104" value="New Commerce 전환" style="whiteSpace=wrap;html=1;strokeWidth=2;" parent="1" vertex="1">
          <mxGeometry x="2240" y="1246" width="120" height="30" as="geometry" />
        </mxCell>
        <mxCell id="jiECZz7fGckPXylajzZf-142" style="edgeStyle=orthogonalEdgeStyle;rounded=0;orthogonalLoop=1;jettySize=auto;html=1;" parent="1" source="jiECZz7fGckPXylajzZf-143" edge="1">
          <mxGeometry relative="1" as="geometry">
            <mxPoint x="794.5" y="1751" as="targetPoint" />
          </mxGeometry>
        </mxCell>
        <mxCell id="jiECZz7fGckPXylajzZf-143" value="오기입 안내 및&lt;br&gt;공급사 미책임 동의" style="whiteSpace=wrap;html=1;strokeWidth=2;" parent="1" vertex="1">
          <mxGeometry x="625.5" y="1736" width="120" height="30" as="geometry" />
        </mxCell>
        <mxCell id="jiECZz7fGckPXylajzZf-144" value="전자계약" style="whiteSpace=wrap;html=1;strokeWidth=2;" parent="1" vertex="1">
          <mxGeometry x="625.5" y="1776" width="120" height="30" as="geometry" />
        </mxCell>
        <mxCell id="jiECZz7fGckPXylajzZf-145" value="주문신청" style="whiteSpace=wrap;html=1;strokeWidth=2;" parent="1" vertex="1">
          <mxGeometry x="795.5" y="1736" width="120" height="30" as="geometry" />
        </mxCell>
        <mxCell id="jiECZz7fGckPXylajzZf-146" style="edgeStyle=orthogonalEdgeStyle;rounded=0;orthogonalLoop=1;jettySize=auto;html=1;entryX=0;entryY=0.5;entryDx=0;entryDy=0;" parent="1" source="jiECZz7fGckPXylajzZf-147" target="jiECZz7fGckPXylajzZf-175" edge="1">
          <mxGeometry relative="1" as="geometry" />
        </mxCell>
        <mxCell id="jiECZz7fGckPXylajzZf-147" value="주문완료" style="whiteSpace=wrap;html=1;strokeWidth=2;" parent="1" vertex="1">
          <mxGeometry x="1744.5" y="1736" width="120" height="30" as="geometry" />
        </mxCell>
        <mxCell id="jiECZz7fGckPXylajzZf-148" value="*테넌트 별 MCuA동의 체크필수" style="text;html=1;resizable=0;autosize=1;align=center;verticalAlign=middle;points=[];fillColor=none;strokeColor=none;rounded=0;" parent="1" vertex="1">
          <mxGeometry x="764.5" y="1711" width="180" height="20" as="geometry" />
        </mxCell>
        <mxCell id="jiECZz7fGckPXylajzZf-149" style="edgeStyle=orthogonalEdgeStyle;rounded=0;orthogonalLoop=1;jettySize=auto;html=1;entryX=0.5;entryY=1;entryDx=0;entryDy=0;" parent="1" source="jiECZz7fGckPXylajzZf-151" edge="1">
          <mxGeometry relative="1" as="geometry">
            <mxPoint x="855.5" y="1766" as="targetPoint" />
          </mxGeometry>
        </mxCell>
        <mxCell id="jiECZz7fGckPXylajzZf-150" style="edgeStyle=orthogonalEdgeStyle;rounded=0;orthogonalLoop=1;jettySize=auto;html=1;entryX=0.5;entryY=0;entryDx=0;entryDy=0;" parent="1" source="jiECZz7fGckPXylajzZf-151" target="jiECZz7fGckPXylajzZf-152" edge="1">
          <mxGeometry relative="1" as="geometry" />
        </mxCell>
        <mxCell id="jiECZz7fGckPXylajzZf-151" value="주문반려" style="whiteSpace=wrap;html=1;strokeWidth=2;" parent="1" vertex="1">
          <mxGeometry x="795.5" y="1799" width="120" height="30" as="geometry" />
        </mxCell>
        <mxCell id="jiECZz7fGckPXylajzZf-152" value="주문취소" style="whiteSpace=wrap;html=1;strokeWidth=2;" parent="1" vertex="1">
          <mxGeometry x="795.5" y="1865" width="120" height="30" as="geometry" />
        </mxCell>
        <mxCell id="jiECZz7fGckPXylajzZf-153" value="-주문 반려시 내용수정 가능" style="text;html=1;resizable=0;autosize=1;align=center;verticalAlign=middle;points=[];fillColor=none;strokeColor=none;rounded=0;" parent="1" vertex="1">
          <mxGeometry x="854.5" y="1829" width="160" height="20" as="geometry" />
        </mxCell>
        <mxCell id="jiECZz7fGckPXylajzZf-154" style="edgeStyle=orthogonalEdgeStyle;rounded=0;orthogonalLoop=1;jettySize=auto;html=1;entryX=0;entryY=0.5;entryDx=0;entryDy=0;" parent="1" target="jiECZz7fGckPXylajzZf-157" edge="1">
          <mxGeometry relative="1" as="geometry">
            <mxPoint x="915.5" y="1750" as="sourcePoint" />
          </mxGeometry>
        </mxCell>
        <mxCell id="jiECZz7fGckPXylajzZf-155" style="edgeStyle=orthogonalEdgeStyle;rounded=0;orthogonalLoop=1;jettySize=auto;html=1;" parent="1" source="jiECZz7fGckPXylajzZf-157" edge="1">
          <mxGeometry relative="1" as="geometry">
            <mxPoint x="915.5" y="1813" as="targetPoint" />
            <Array as="points">
              <mxPoint x="1004.5" y="1813" />
              <mxPoint x="965.5" y="1813" />
            </Array>
          </mxGeometry>
        </mxCell>
        <mxCell id="jiECZz7fGckPXylajzZf-156" style="edgeStyle=orthogonalEdgeStyle;rounded=0;orthogonalLoop=1;jettySize=auto;html=1;entryX=0;entryY=0.5;entryDx=0;entryDy=0;" parent="1" source="jiECZz7fGckPXylajzZf-157" target="jiECZz7fGckPXylajzZf-161" edge="1">
          <mxGeometry relative="1" as="geometry" />
        </mxCell>
        <mxCell id="jiECZz7fGckPXylajzZf-157" value="공급사&lt;br&gt;승인여부" style="rhombus;whiteSpace=wrap;html=1;" parent="1" vertex="1">
          <mxGeometry x="964" y="1710" width="80" height="80" as="geometry" />
        </mxCell>
        <mxCell id="jiECZz7fGckPXylajzZf-158" value="No" style="text;html=1;resizable=0;autosize=1;align=center;verticalAlign=middle;points=[];fillColor=none;strokeColor=none;rounded=0;" parent="1" vertex="1">
          <mxGeometry x="1007" y="1790" width="30" height="20" as="geometry" />
        </mxCell>
        <mxCell id="jiECZz7fGckPXylajzZf-159" value="공급사 검토(가격, 여신)" style="text;html=1;resizable=0;autosize=1;align=center;verticalAlign=middle;points=[];fillColor=none;strokeColor=none;rounded=0;" parent="1" vertex="1">
          <mxGeometry x="930" y="1682" width="140" height="20" as="geometry" />
        </mxCell>
        <mxCell id="jiECZz7fGckPXylajzZf-160" style="edgeStyle=orthogonalEdgeStyle;rounded=0;orthogonalLoop=1;jettySize=auto;html=1;entryX=0;entryY=0.5;entryDx=0;entryDy=0;" parent="1" source="jiECZz7fGckPXylajzZf-161" target="jiECZz7fGckPXylajzZf-163" edge="1">
          <mxGeometry relative="1" as="geometry" />
        </mxCell>
        <mxCell id="jiECZz7fGckPXylajzZf-161" value="주문접수" style="whiteSpace=wrap;html=1;strokeWidth=2;" parent="1" vertex="1">
          <mxGeometry x="1095.5" y="1735" width="120" height="30" as="geometry" />
        </mxCell>
        <mxCell id="jiECZz7fGckPXylajzZf-162" value="Yes" style="text;html=1;resizable=0;autosize=1;align=center;verticalAlign=middle;points=[];fillColor=none;strokeColor=none;rounded=0;" parent="1" vertex="1">
          <mxGeometry x="1039" y="1725" width="30" height="20" as="geometry" />
        </mxCell>
        <mxCell id="jiECZz7fGckPXylajzZf-163" value="주문내역서 전송" style="whiteSpace=wrap;html=1;strokeWidth=2;" parent="1" vertex="1">
          <mxGeometry x="1265.5" y="1735" width="120" height="30" as="geometry" />
        </mxCell>
        <mxCell id="jiECZz7fGckPXylajzZf-164" style="edgeStyle=orthogonalEdgeStyle;rounded=0;orthogonalLoop=1;jettySize=auto;html=1;entryX=1;entryY=0.5;entryDx=0;entryDy=0;" parent="1" edge="1">
          <mxGeometry relative="1" as="geometry">
            <mxPoint x="1475.5" y="1790" as="sourcePoint" />
            <mxPoint x="915.5" y="1880" as="targetPoint" />
            <Array as="points">
              <mxPoint x="1475.5" y="1880" />
            </Array>
          </mxGeometry>
        </mxCell>
        <mxCell id="jiECZz7fGckPXylajzZf-165" value="To Provider / Reseller" style="text;html=1;resizable=0;autosize=1;align=center;verticalAlign=middle;points=[];fillColor=none;strokeColor=none;rounded=0;" parent="1" vertex="1">
          <mxGeometry x="1260.5" y="1710" width="130" height="20" as="geometry" />
        </mxCell>
        <mxCell id="jiECZz7fGckPXylajzZf-166" style="edgeStyle=orthogonalEdgeStyle;rounded=0;orthogonalLoop=1;jettySize=auto;html=1;entryX=0;entryY=0.5;entryDx=0;entryDy=0;" parent="1" edge="1">
          <mxGeometry relative="1" as="geometry">
            <mxPoint x="1385.5" y="1750" as="sourcePoint" />
            <mxPoint x="1435.5" y="1750" as="targetPoint" />
          </mxGeometry>
        </mxCell>
        <mxCell id="jiECZz7fGckPXylajzZf-167" value="주문확인&lt;br&gt;버튼클릭" style="rhombus;whiteSpace=wrap;html=1;" parent="1" vertex="1">
          <mxGeometry x="1435.5" y="1710" width="80" height="80" as="geometry" />
        </mxCell>
        <mxCell id="jiECZz7fGckPXylajzZf-168" value="Reseller" style="text;html=1;resizable=0;autosize=1;align=center;verticalAlign=middle;points=[];fillColor=none;strokeColor=none;rounded=0;" parent="1" vertex="1">
          <mxGeometry x="1445.5" y="1687" width="60" height="20" as="geometry" />
        </mxCell>
        <mxCell id="jiECZz7fGckPXylajzZf-169" value="Yes" style="text;html=1;resizable=0;autosize=1;align=center;verticalAlign=middle;points=[];fillColor=none;strokeColor=none;rounded=0;" parent="1" vertex="1">
          <mxGeometry x="1513" y="1725" width="30" height="20" as="geometry" />
        </mxCell>
        <mxCell id="jiECZz7fGckPXylajzZf-170" value="No" style="text;html=1;resizable=0;autosize=1;align=center;verticalAlign=middle;points=[];fillColor=none;strokeColor=none;rounded=0;" parent="1" vertex="1">
          <mxGeometry x="1475.5" y="1790" width="30" height="20" as="geometry" />
        </mxCell>
        <mxCell id="jiECZz7fGckPXylajzZf-171" style="edgeStyle=orthogonalEdgeStyle;rounded=0;orthogonalLoop=1;jettySize=auto;html=1;entryX=0;entryY=0.5;entryDx=0;entryDy=0;" parent="1" source="jiECZz7fGckPXylajzZf-172" target="jiECZz7fGckPXylajzZf-147" edge="1">
          <mxGeometry relative="1" as="geometry" />
        </mxCell>
        <mxCell id="jiECZz7fGckPXylajzZf-172" value="MS 접수" style="whiteSpace=wrap;html=1;strokeWidth=2;" parent="1" vertex="1">
          <mxGeometry x="1565.5" y="1736" width="120" height="30" as="geometry" />
        </mxCell>
        <mxCell id="jiECZz7fGckPXylajzZf-173" style="edgeStyle=orthogonalEdgeStyle;rounded=0;orthogonalLoop=1;jettySize=auto;html=1;" parent="1" target="jiECZz7fGckPXylajzZf-172" edge="1">
          <mxGeometry relative="1" as="geometry">
            <mxPoint x="1515.5" y="1751" as="sourcePoint" />
          </mxGeometry>
        </mxCell>
        <mxCell id="jiECZz7fGckPXylajzZf-174" style="edgeStyle=orthogonalEdgeStyle;rounded=0;orthogonalLoop=1;jettySize=auto;html=1;" parent="1" source="jiECZz7fGckPXylajzZf-175" edge="1">
          <mxGeometry relative="1" as="geometry">
            <mxPoint x="2087" y="1751" as="targetPoint" />
          </mxGeometry>
        </mxCell>
        <mxCell id="jiECZz7fGckPXylajzZf-175" value="완료안내메일 발송" style="whiteSpace=wrap;html=1;strokeWidth=2;" parent="1" vertex="1">
          <mxGeometry x="1914.5" y="1736" width="120" height="30" as="geometry" />
        </mxCell>
        <mxCell id="jiECZz7fGckPXylajzZf-176" value="ID, PW, 제품명, SKU, &lt;br&gt;청구주기, 계약기간" style="text;html=1;resizable=0;autosize=1;align=center;verticalAlign=middle;points=[];fillColor=none;strokeColor=none;rounded=0;" parent="1" vertex="1">
          <mxGeometry x="1909.5" y="1771" width="130" height="30" as="geometry" />
        </mxCell>
        <mxCell id="jiECZz7fGckPXylajzZf-178" style="edgeStyle=orthogonalEdgeStyle;rounded=0;orthogonalLoop=1;jettySize=auto;html=1;entryX=0;entryY=0.5;entryDx=0;entryDy=0;" parent="1" edge="1">
          <mxGeometry relative="1" as="geometry">
            <mxPoint x="571.75" y="1750.5" as="sourcePoint" />
            <mxPoint x="621.75" y="1750.5" as="targetPoint" />
          </mxGeometry>
        </mxCell>
        <mxCell id="jiECZz7fGckPXylajzZf-181" value="Azure Portal" style="text;html=1;resizable=0;autosize=1;align=center;verticalAlign=middle;points=[];fillColor=none;strokeColor=none;rounded=0;" parent="1" vertex="1">
          <mxGeometry x="2240" y="1384" width="80" height="20" as="geometry" />
        </mxCell>
        <mxCell id="jiECZz7fGckPXylajzZf-182" value="Azure Portal" style="text;html=1;resizable=0;autosize=1;align=center;verticalAlign=middle;points=[];fillColor=none;strokeColor=none;rounded=0;" parent="1" vertex="1">
          <mxGeometry x="2350" y="1495" width="80" height="20" as="geometry" />
        </mxCell>
        <mxCell id="jiECZz7fGckPXylajzZf-183" style="edgeStyle=orthogonalEdgeStyle;rounded=0;orthogonalLoop=1;jettySize=auto;html=1;" parent="1" source="jiECZz7fGckPXylajzZf-184" edge="1">
          <mxGeometry relative="1" as="geometry">
            <mxPoint x="789.25" y="2000" as="targetPoint" />
          </mxGeometry>
        </mxCell>
        <mxCell id="jiECZz7fGckPXylajzZf-184" value="오기입 안내 및&lt;br&gt;공급사 미책임 동의" style="whiteSpace=wrap;html=1;strokeWidth=2;" parent="1" vertex="1">
          <mxGeometry x="620.25" y="1985" width="120" height="30" as="geometry" />
        </mxCell>
        <mxCell id="jiECZz7fGckPXylajzZf-185" value="전자계약" style="whiteSpace=wrap;html=1;strokeWidth=2;" parent="1" vertex="1">
          <mxGeometry x="620.25" y="2025" width="120" height="30" as="geometry" />
        </mxCell>
        <mxCell id="jiECZz7fGckPXylajzZf-186" value="주문신청" style="whiteSpace=wrap;html=1;strokeWidth=2;" parent="1" vertex="1">
          <mxGeometry x="790.25" y="1985" width="120" height="30" as="geometry" />
        </mxCell>
        <mxCell id="jiECZz7fGckPXylajzZf-187" style="edgeStyle=orthogonalEdgeStyle;rounded=0;orthogonalLoop=1;jettySize=auto;html=1;entryX=0;entryY=0.5;entryDx=0;entryDy=0;" parent="1" source="jiECZz7fGckPXylajzZf-188" target="jiECZz7fGckPXylajzZf-216" edge="1">
          <mxGeometry relative="1" as="geometry" />
        </mxCell>
        <mxCell id="jiECZz7fGckPXylajzZf-188" value="주문완료" style="whiteSpace=wrap;html=1;strokeWidth=2;" parent="1" vertex="1">
          <mxGeometry x="1739.25" y="1985" width="120" height="30" as="geometry" />
        </mxCell>
        <mxCell id="jiECZz7fGckPXylajzZf-189" value="*테넌트 별 MCuA동의 체크필수" style="text;html=1;resizable=0;autosize=1;align=center;verticalAlign=middle;points=[];fillColor=none;strokeColor=none;rounded=0;" parent="1" vertex="1">
          <mxGeometry x="759.25" y="1960" width="180" height="20" as="geometry" />
        </mxCell>
        <mxCell id="jiECZz7fGckPXylajzZf-190" style="edgeStyle=orthogonalEdgeStyle;rounded=0;orthogonalLoop=1;jettySize=auto;html=1;entryX=0.5;entryY=1;entryDx=0;entryDy=0;" parent="1" source="jiECZz7fGckPXylajzZf-192" edge="1">
          <mxGeometry relative="1" as="geometry">
            <mxPoint x="850.25" y="2015" as="targetPoint" />
          </mxGeometry>
        </mxCell>
        <mxCell id="jiECZz7fGckPXylajzZf-191" style="edgeStyle=orthogonalEdgeStyle;rounded=0;orthogonalLoop=1;jettySize=auto;html=1;entryX=0.5;entryY=0;entryDx=0;entryDy=0;" parent="1" source="jiECZz7fGckPXylajzZf-192" target="jiECZz7fGckPXylajzZf-193" edge="1">
          <mxGeometry relative="1" as="geometry" />
        </mxCell>
        <mxCell id="jiECZz7fGckPXylajzZf-192" value="주문반려" style="whiteSpace=wrap;html=1;strokeWidth=2;" parent="1" vertex="1">
          <mxGeometry x="790.25" y="2048" width="120" height="30" as="geometry" />
        </mxCell>
        <mxCell id="jiECZz7fGckPXylajzZf-193" value="주문취소" style="whiteSpace=wrap;html=1;strokeWidth=2;" parent="1" vertex="1">
          <mxGeometry x="790.25" y="2114" width="120" height="30" as="geometry" />
        </mxCell>
        <mxCell id="jiECZz7fGckPXylajzZf-194" value="-주문 반려시 내용수정 가능" style="text;html=1;resizable=0;autosize=1;align=center;verticalAlign=middle;points=[];fillColor=none;strokeColor=none;rounded=0;" parent="1" vertex="1">
          <mxGeometry x="849.25" y="2078" width="160" height="20" as="geometry" />
        </mxCell>
        <mxCell id="jiECZz7fGckPXylajzZf-195" style="edgeStyle=orthogonalEdgeStyle;rounded=0;orthogonalLoop=1;jettySize=auto;html=1;entryX=0;entryY=0.5;entryDx=0;entryDy=0;" parent="1" target="jiECZz7fGckPXylajzZf-198" edge="1">
          <mxGeometry relative="1" as="geometry">
            <mxPoint x="910.25" y="1999" as="sourcePoint" />
          </mxGeometry>
        </mxCell>
        <mxCell id="jiECZz7fGckPXylajzZf-196" style="edgeStyle=orthogonalEdgeStyle;rounded=0;orthogonalLoop=1;jettySize=auto;html=1;" parent="1" source="jiECZz7fGckPXylajzZf-198" edge="1">
          <mxGeometry relative="1" as="geometry">
            <mxPoint x="910.25" y="2062" as="targetPoint" />
            <Array as="points">
              <mxPoint x="999.25" y="2062" />
              <mxPoint x="960.25" y="2062" />
            </Array>
          </mxGeometry>
        </mxCell>
        <mxCell id="jiECZz7fGckPXylajzZf-197" style="edgeStyle=orthogonalEdgeStyle;rounded=0;orthogonalLoop=1;jettySize=auto;html=1;entryX=0;entryY=0.5;entryDx=0;entryDy=0;" parent="1" source="jiECZz7fGckPXylajzZf-198" target="jiECZz7fGckPXylajzZf-202" edge="1">
          <mxGeometry relative="1" as="geometry" />
        </mxCell>
        <mxCell id="jiECZz7fGckPXylajzZf-198" value="공급사&lt;br&gt;승인여부" style="rhombus;whiteSpace=wrap;html=1;" parent="1" vertex="1">
          <mxGeometry x="958.75" y="1959" width="80" height="80" as="geometry" />
        </mxCell>
        <mxCell id="jiECZz7fGckPXylajzZf-199" value="No" style="text;html=1;resizable=0;autosize=1;align=center;verticalAlign=middle;points=[];fillColor=none;strokeColor=none;rounded=0;" parent="1" vertex="1">
          <mxGeometry x="1001.75" y="2039" width="30" height="20" as="geometry" />
        </mxCell>
        <mxCell id="jiECZz7fGckPXylajzZf-200" value="공급사 검토(가격, 여신)" style="text;html=1;resizable=0;autosize=1;align=center;verticalAlign=middle;points=[];fillColor=none;strokeColor=none;rounded=0;" parent="1" vertex="1">
          <mxGeometry x="923.75" y="1934" width="140" height="20" as="geometry" />
        </mxCell>
        <mxCell id="jiECZz7fGckPXylajzZf-201" style="edgeStyle=orthogonalEdgeStyle;rounded=0;orthogonalLoop=1;jettySize=auto;html=1;entryX=0;entryY=0.5;entryDx=0;entryDy=0;" parent="1" source="jiECZz7fGckPXylajzZf-202" target="jiECZz7fGckPXylajzZf-204" edge="1">
          <mxGeometry relative="1" as="geometry" />
        </mxCell>
        <mxCell id="jiECZz7fGckPXylajzZf-202" value="주문접수" style="whiteSpace=wrap;html=1;strokeWidth=2;" parent="1" vertex="1">
          <mxGeometry x="1090.25" y="1984" width="120" height="30" as="geometry" />
        </mxCell>
        <mxCell id="jiECZz7fGckPXylajzZf-203" value="Yes" style="text;html=1;resizable=0;autosize=1;align=center;verticalAlign=middle;points=[];fillColor=none;strokeColor=none;rounded=0;" parent="1" vertex="1">
          <mxGeometry x="1033.75" y="1974" width="30" height="20" as="geometry" />
        </mxCell>
        <mxCell id="jiECZz7fGckPXylajzZf-204" value="주문내역서 전송" style="whiteSpace=wrap;html=1;strokeWidth=2;" parent="1" vertex="1">
          <mxGeometry x="1260.25" y="1984" width="120" height="30" as="geometry" />
        </mxCell>
        <mxCell id="jiECZz7fGckPXylajzZf-205" style="edgeStyle=orthogonalEdgeStyle;rounded=0;orthogonalLoop=1;jettySize=auto;html=1;entryX=1;entryY=0.5;entryDx=0;entryDy=0;" parent="1" edge="1">
          <mxGeometry relative="1" as="geometry">
            <mxPoint x="1470.25" y="2039" as="sourcePoint" />
            <mxPoint x="910.25" y="2129" as="targetPoint" />
            <Array as="points">
              <mxPoint x="1470.25" y="2129" />
            </Array>
          </mxGeometry>
        </mxCell>
        <mxCell id="jiECZz7fGckPXylajzZf-206" value="To Provider / Reseller" style="text;html=1;resizable=0;autosize=1;align=center;verticalAlign=middle;points=[];fillColor=none;strokeColor=none;rounded=0;" parent="1" vertex="1">
          <mxGeometry x="1255.25" y="1959" width="130" height="20" as="geometry" />
        </mxCell>
        <mxCell id="jiECZz7fGckPXylajzZf-207" style="edgeStyle=orthogonalEdgeStyle;rounded=0;orthogonalLoop=1;jettySize=auto;html=1;entryX=0;entryY=0.5;entryDx=0;entryDy=0;" parent="1" edge="1">
          <mxGeometry relative="1" as="geometry">
            <mxPoint x="1380.25" y="1999" as="sourcePoint" />
            <mxPoint x="1430.25" y="1999" as="targetPoint" />
          </mxGeometry>
        </mxCell>
        <mxCell id="jiECZz7fGckPXylajzZf-208" value="주문확인&lt;br&gt;버튼클릭" style="rhombus;whiteSpace=wrap;html=1;" parent="1" vertex="1">
          <mxGeometry x="1430.25" y="1959" width="80" height="80" as="geometry" />
        </mxCell>
        <mxCell id="jiECZz7fGckPXylajzZf-209" value="Reseller" style="text;html=1;resizable=0;autosize=1;align=center;verticalAlign=middle;points=[];fillColor=none;strokeColor=none;rounded=0;" parent="1" vertex="1">
          <mxGeometry x="1437.75" y="1939" width="60" height="20" as="geometry" />
        </mxCell>
        <mxCell id="jiECZz7fGckPXylajzZf-210" value="Yes" style="text;html=1;resizable=0;autosize=1;align=center;verticalAlign=middle;points=[];fillColor=none;strokeColor=none;rounded=0;" parent="1" vertex="1">
          <mxGeometry x="1507.75" y="1974" width="30" height="20" as="geometry" />
        </mxCell>
        <mxCell id="jiECZz7fGckPXylajzZf-211" value="No" style="text;html=1;resizable=0;autosize=1;align=center;verticalAlign=middle;points=[];fillColor=none;strokeColor=none;rounded=0;" parent="1" vertex="1">
          <mxGeometry x="1470.25" y="2039" width="30" height="20" as="geometry" />
        </mxCell>
        <mxCell id="jiECZz7fGckPXylajzZf-212" style="edgeStyle=orthogonalEdgeStyle;rounded=0;orthogonalLoop=1;jettySize=auto;html=1;entryX=0;entryY=0.5;entryDx=0;entryDy=0;" parent="1" source="jiECZz7fGckPXylajzZf-213" target="jiECZz7fGckPXylajzZf-188" edge="1">
          <mxGeometry relative="1" as="geometry" />
        </mxCell>
        <mxCell id="jiECZz7fGckPXylajzZf-213" value="MS 접수" style="whiteSpace=wrap;html=1;strokeWidth=2;" parent="1" vertex="1">
          <mxGeometry x="1560.25" y="1985" width="120" height="30" as="geometry" />
        </mxCell>
        <mxCell id="jiECZz7fGckPXylajzZf-214" style="edgeStyle=orthogonalEdgeStyle;rounded=0;orthogonalLoop=1;jettySize=auto;html=1;" parent="1" target="jiECZz7fGckPXylajzZf-213" edge="1">
          <mxGeometry relative="1" as="geometry">
            <mxPoint x="1510.25" y="2000" as="sourcePoint" />
          </mxGeometry>
        </mxCell>
        <mxCell id="jiECZz7fGckPXylajzZf-215" style="edgeStyle=orthogonalEdgeStyle;rounded=0;orthogonalLoop=1;jettySize=auto;html=1;" parent="1" source="jiECZz7fGckPXylajzZf-216" edge="1">
          <mxGeometry relative="1" as="geometry">
            <mxPoint x="2081.75" y="2000" as="targetPoint" />
          </mxGeometry>
        </mxCell>
        <mxCell id="jiECZz7fGckPXylajzZf-216" value="제품 키 다운로드" style="whiteSpace=wrap;html=1;strokeWidth=2;" parent="1" vertex="1">
          <mxGeometry x="1909.25" y="1985" width="120" height="30" as="geometry" />
        </mxCell>
        <mxCell id="jiECZz7fGckPXylajzZf-217" value="ID, PW, 제품명, SKU, &lt;br&gt;청구주기, 계약기간, 제품 키, &lt;br&gt;수량, 금액" style="text;html=1;resizable=0;autosize=1;align=center;verticalAlign=middle;points=[];fillColor=none;strokeColor=none;rounded=0;" parent="1" vertex="1">
          <mxGeometry x="2059.75" y="2015" width="170" height="50" as="geometry" />
        </mxCell>
        <mxCell id="jiECZz7fGckPXylajzZf-218" style="edgeStyle=orthogonalEdgeStyle;rounded=0;orthogonalLoop=1;jettySize=auto;html=1;entryX=0;entryY=0.5;entryDx=0;entryDy=0;" parent="1" edge="1">
          <mxGeometry relative="1" as="geometry">
            <mxPoint x="570.75" y="2000.5" as="sourcePoint" />
            <mxPoint x="620.75" y="2000.5" as="targetPoint" />
          </mxGeometry>
        </mxCell>
        <mxCell id="jiECZz7fGckPXylajzZf-219" value="Azure Portal" style="text;html=1;resizable=0;autosize=1;align=center;verticalAlign=middle;points=[];fillColor=none;strokeColor=none;rounded=0;" parent="1" vertex="1">
          <mxGeometry x="2112.25" y="1715" width="80" height="20" as="geometry" />
        </mxCell>
        <mxCell id="jiECZz7fGckPXylajzZf-228" style="edgeStyle=orthogonalEdgeStyle;rounded=0;orthogonalLoop=1;jettySize=auto;html=1;entryX=0;entryY=0.75;entryDx=0;entryDy=0;" parent="1" source="jiECZz7fGckPXylajzZf-225" target="MoLYa7cNz7H3YmrfVmoX-41" edge="1">
          <mxGeometry relative="1" as="geometry" />
        </mxCell>
        <mxCell id="jiECZz7fGckPXylajzZf-225" value="Azure global?" style="rhombus;whiteSpace=wrap;html=1;" parent="1" vertex="1">
          <mxGeometry x="2172.5" y="1498" width="80" height="80" as="geometry" />
        </mxCell>
        <mxCell id="jiECZz7fGckPXylajzZf-227" value="YES" style="text;html=1;resizable=0;autosize=1;align=center;verticalAlign=middle;points=[];fillColor=none;strokeColor=none;rounded=0;" parent="1" vertex="1">
          <mxGeometry x="2251.75" y="1510" width="40" height="20" as="geometry" />
        </mxCell>
        <mxCell id="jiECZz7fGckPXylajzZf-229" style="edgeStyle=orthogonalEdgeStyle;rounded=0;orthogonalLoop=1;jettySize=auto;html=1;entryX=0;entryY=0.5;entryDx=0;entryDy=0;" parent="1" edge="1">
          <mxGeometry relative="1" as="geometry">
            <mxPoint x="2212.25" y="1577" as="sourcePoint" />
            <mxPoint x="2262.25" y="1655" as="targetPoint" />
            <Array as="points">
              <mxPoint x="2212.75" y="1655" />
            </Array>
          </mxGeometry>
        </mxCell>
        <mxCell id="jiECZz7fGckPXylajzZf-230" value="NO" style="text;html=1;resizable=0;autosize=1;align=center;verticalAlign=middle;points=[];fillColor=none;strokeColor=none;rounded=0;" parent="1" vertex="1">
          <mxGeometry x="2217.25" y="1577" width="30" height="20" as="geometry" />
        </mxCell>
        <mxCell id="jiECZz7fGckPXylajzZf-231" value="구독중지" style="whiteSpace=wrap;html=1;strokeWidth=2;" parent="1" vertex="1">
          <mxGeometry x="2433.25" y="1677" width="120" height="30" as="geometry" />
        </mxCell>
        <mxCell id="jiECZz7fGckPXylajzZf-232" style="edgeStyle=orthogonalEdgeStyle;rounded=0;orthogonalLoop=1;jettySize=auto;html=1;entryX=0;entryY=0.5;entryDx=0;entryDy=0;" parent="1" source="jiECZz7fGckPXylajzZf-233" target="jiECZz7fGckPXylajzZf-234" edge="1">
          <mxGeometry relative="1" as="geometry" />
        </mxCell>
        <mxCell id="jiECZz7fGckPXylajzZf-233" value="리소스 온&amp;nbsp;" style="whiteSpace=wrap;html=1;strokeWidth=2;" parent="1" vertex="1">
          <mxGeometry x="2263.25" y="1642" width="120" height="30" as="geometry" />
        </mxCell>
        <mxCell id="jiECZz7fGckPXylajzZf-234" value="사용" style="whiteSpace=wrap;html=1;strokeWidth=2;" parent="1" vertex="1">
          <mxGeometry x="2433.25" y="1642" width="120" height="30" as="geometry" />
        </mxCell>
        <mxCell id="jiECZz7fGckPXylajzZf-235" value="예산설정" style="whiteSpace=wrap;html=1;strokeWidth=2;" parent="1" vertex="1">
          <mxGeometry x="2263.25" y="1677" width="120" height="30" as="geometry" />
        </mxCell>
        <mxCell id="jiECZz7fGckPXylajzZf-236" value="Azure Portal" style="text;html=1;resizable=0;autosize=1;align=center;verticalAlign=middle;points=[];fillColor=none;strokeColor=none;rounded=0;" parent="1" vertex="1">
          <mxGeometry x="2283.25" y="1621" width="80" height="20" as="geometry" />
        </mxCell>
        <mxCell id="t7yyZvSMRt4UFGwBYPYK-1" value="3일 이후 취소불가, 3일 이내 취소 시 일할계산&amp;nbsp;&amp;nbsp;" style="text;html=1;resizable=0;autosize=1;align=center;verticalAlign=middle;points=[];fillColor=none;strokeColor=none;rounded=0;" vertex="1" parent="1">
          <mxGeometry x="2358.25" y="1215" width="270" height="20" as="geometry" />
        </mxCell>
        <mxCell id="t7yyZvSMRt4UFGwBYPYK-2" value="30일전까지 취소가능" style="text;html=1;resizable=0;autosize=1;align=center;verticalAlign=middle;points=[];fillColor=none;strokeColor=none;rounded=0;" vertex="1" parent="1">
          <mxGeometry x="2371.75" y="2028" width="130" height="20" as="geometry" />
        </mxCell>
        <mxCell id="t7yyZvSMRt4UFGwBYPYK-3" value="주문페이지 접속 시, MCA랑 전자계약 여부 거를것&lt;br&gt;여신관리 추후 고도화시 필요" style="text;html=1;resizable=0;autosize=1;align=center;verticalAlign=middle;points=[];fillColor=none;strokeColor=none;rounded=0;" vertex="1" parent="1">
          <mxGeometry x="876.25" y="1025" width="280" height="30" as="geometry" />
        </mxCell>
      </root>
    </mxGraphModel>
  </diagram>
</mxfile>
